<svg id="svg" version="1.1" xmlns="http://www.w3.org/2000/svg" xmlns:xlink="http://www.w3.org/1999/xlink" width="400" height="460.7142857142857" viewBox="0, 0, 400,460.7142857142857"><g id="svgg"><path id="path0" d="M191.741 2.281 C 187.491 2.893,181.366 4.801,177.009 6.869 C 173.008 8.768,32.225 92.093,25.000 96.838 C 12.679 104.930,3.317 119.451,0.690 134.545 C -0.490 141.324,-0.340 320.980,0.850 327.122 C 3.650 341.563,12.000 354.791,23.503 363.009 C 27.181 365.637,170.938 451.081,175.794 453.525 C 190.285 460.821,209.381 460.768,224.107 453.392 C 228.934 450.974,372.448 365.789,376.339 363.032 C 387.488 355.133,395.823 341.944,398.966 327.232 C 400.050 322.157,400.243 140.294,399.170 134.375 C 396.486 119.565,386.898 104.519,375.223 96.799 C 370.991 94.001,227.431 8.820,224.208 7.195 C 215.369 2.739,202.296 0.760,191.741 2.281 M204.018 12.514 C 209.189 13.055,213.823 14.285,218.033 16.231 C 222.208 18.161,366.757 103.933,370.600 106.761 C 378.947 112.902,385.800 123.236,388.139 133.210 C 388.412 134.376,388.227 134.266,386.203 132.051 C 381.214 126.592,373.441 125.452,365.192 128.970 C 362.794 129.993,222.491 216.288,216.125 220.656 C 203.199 229.524,196.397 239.950,195.087 252.902 C 194.735 256.380,194.632 283.150,194.734 344.643 L 194.878 431.473 195.891 434.755 C 197.725 440.701,200.787 444.971,204.677 447.007 L 206.473 447.948 203.795 448.330 C 195.465 449.516,185.214 446.820,174.929 440.738 C 139.904 420.027,31.842 355.780,30.357 354.784 C 21.541 348.874,13.829 337.069,11.261 325.551 C 10.074 320.226,10.074 140.489,11.261 135.163 C 13.807 123.747,20.877 112.721,29.639 106.501 C 33.804 103.545,177.397 18.415,181.481 16.481 C 185.834 14.420,190.729 13.034,195.392 12.541 C 197.313 12.338,199.085 12.149,199.330 12.121 C 199.576 12.092,201.685 12.269,204.018 12.514 M259.550 254.278 C 259.699 254.666,259.821 257.865,259.821 261.387 L 259.821 267.790 262.388 266.862 C 264.233 266.195,266.112 265.922,269.068 265.891 C 275.081 265.828,275.019 265.712,273.246 273.731 C 271.341 282.349,271.533 282.114,266.390 282.083 C 254.610 282.011,245.759 289.438,245.759 299.395 C 245.759 305.408,247.447 306.529,257.453 307.163 C 264.470 307.608,266.533 308.023,269.690 309.622 C 282.839 316.285,278.817 345.481,262.725 360.189 L 260.268 362.434 260.268 368.963 C 260.268 377.265,260.239 377.323,254.601 380.528 C 248.991 383.716,249.107 383.820,249.107 375.615 C 249.107 372.085,249.000 369.196,248.870 369.196 C 248.739 369.196,247.383 369.635,245.856 370.170 C 242.591 371.316,234.449 371.593,232.701 370.618 C 231.389 369.886,231.420 369.223,233.104 362.073 C 234.794 354.897,235.498 353.855,238.226 354.488 C 250.620 357.364,263.839 347.185,263.839 334.767 C 263.839 328.092,261.207 326.230,250.992 325.684 C 238.330 325.007,233.391 321.322,232.241 311.692 C 230.883 300.323,236.079 286.776,245.281 277.690 L 248.661 274.353 248.681 267.868 C 248.706 259.675,248.764 259.543,253.795 256.256 C 258.023 253.493,259.106 253.120,259.550 254.278 M335.616 337.991 C 335.705 341.618,335.575 343.313,335.170 343.844 C 334.325 344.950,297.779 367.024,297.291 366.723 C 296.777 366.405,296.748 356.249,297.259 355.443 C 297.766 354.643,334.487 332.596,335.045 332.757 C 335.299 332.830,335.545 335.081,335.616 337.991 " stroke="none" fill="#000000" fill-rule="evenodd"></path></g></svg>