<svg id="svg" version="1.1" xmlns="http://www.w3.org/2000/svg" xmlns:xlink="http://www.w3.org/1999/xlink" width="400" height="449.438202247191" viewBox="0, 0, 400,449.438202247191"><g id="svgg"><path id="path0" d="M197.600 0.400 C 197.600 0.622,198.667 0.800,200.000 0.800 C 201.333 0.800,202.400 0.622,202.400 0.400 C 202.400 0.178,201.333 0.000,200.000 0.000 C 198.667 0.000,197.600 0.178,197.600 0.400 M188.243 1.433 C 187.891 2.350,187.919 2.400,188.800 2.400 C 189.333 2.400,189.600 2.133,189.600 1.600 C 189.600 0.651,188.591 0.526,188.243 1.433 M210.400 1.600 C 210.400 2.133,210.667 2.400,211.200 2.400 C 212.107 2.400,212.225 1.985,211.520 1.280 C 210.815 0.575,210.400 0.693,210.400 1.600 M184.000 3.000 C 183.584 3.501,183.642 3.600,184.351 3.600 C 184.839 3.600,185.200 3.345,185.200 3.000 C 185.200 2.670,185.042 2.400,184.849 2.400 C 184.656 2.400,184.274 2.670,184.000 3.000 M218.000 4.600 C 218.000 4.930,218.354 5.200,218.787 5.200 C 219.323 5.200,219.501 5.008,219.345 4.600 C 219.218 4.270,218.864 4.000,218.557 4.000 C 218.251 4.000,218.000 4.270,218.000 4.600 M220.800 6.171 C 220.800 6.542,221.142 6.800,221.633 6.800 C 222.608 6.800,222.470 5.865,221.467 5.671 C 221.072 5.594,220.800 5.798,220.800 6.171 M228.400 10.437 C 228.400 10.933,228.680 11.200,229.200 11.200 C 229.640 11.200,230.000 10.951,230.000 10.647 C 230.000 10.342,229.640 9.999,229.200 9.884 C 228.607 9.729,228.400 9.872,228.400 10.437 M238.800 16.437 C 238.800 16.933,239.080 17.200,239.600 17.200 C 240.040 17.200,240.400 16.951,240.400 16.647 C 240.400 16.342,240.040 15.999,239.600 15.884 C 239.007 15.729,238.800 15.872,238.800 16.437 M249.497 22.451 C 249.723 23.314,250.800 23.476,250.800 22.647 C 250.800 22.342,250.463 22.005,250.051 21.897 C 249.474 21.747,249.347 21.874,249.497 22.451 M139.067 28.267 C 138.606 28.727,138.775 29.200,139.400 29.200 C 139.730 29.200,140.000 28.930,140.000 28.600 C 140.000 27.975,139.527 27.806,139.067 28.267 M260.000 28.600 C 260.000 28.930,260.270 29.200,260.600 29.200 C 260.930 29.200,261.200 28.930,261.200 28.600 C 261.200 28.270,260.930 28.000,260.600 28.000 C 260.270 28.000,260.000 28.270,260.000 28.600 M267.600 33.000 C 267.600 33.330,267.870 33.600,268.200 33.600 C 268.530 33.600,268.800 33.330,268.800 33.000 C 268.800 32.670,268.530 32.400,268.200 32.400 C 267.870 32.400,267.600 32.670,267.600 33.000 M270.400 34.567 C 270.400 34.915,270.685 35.200,271.033 35.200 C 271.382 35.200,271.595 34.986,271.508 34.725 C 271.261 33.983,270.400 33.860,270.400 34.567 M278.000 39.000 C 278.000 39.330,278.270 39.600,278.600 39.600 C 278.930 39.600,279.200 39.330,279.200 39.000 C 279.200 38.670,278.930 38.400,278.600 38.400 C 278.270 38.400,278.000 38.670,278.000 39.000 M288.400 45.000 C 288.400 45.330,288.754 45.600,289.187 45.600 C 289.723 45.600,289.901 45.408,289.745 45.000 C 289.618 44.670,289.264 44.400,288.957 44.400 C 288.651 44.400,288.400 44.670,288.400 45.000 M298.800 50.971 C 298.800 51.342,299.142 51.600,299.633 51.600 C 300.608 51.600,300.470 50.665,299.467 50.471 C 299.072 50.394,298.800 50.598,298.800 50.971 M309.200 56.971 C 309.200 57.342,309.542 57.600,310.033 57.600 C 311.008 57.600,310.870 56.665,309.867 56.471 C 309.472 56.394,309.200 56.598,309.200 56.971 M316.800 61.600 C 316.800 62.468,317.095 62.581,317.951 62.039 C 318.597 61.630,318.211 60.800,317.376 60.800 C 317.059 60.800,316.800 61.160,316.800 61.600 M79.200 63.000 C 78.792 63.491,78.820 63.600,79.351 63.600 C 79.708 63.600,80.000 63.330,80.000 63.000 C 80.000 62.670,79.932 62.400,79.849 62.400 C 79.766 62.400,79.474 62.670,79.200 63.000 M320.000 63.000 C 320.000 63.330,320.264 63.600,320.587 63.600 C 320.945 63.600,321.085 63.365,320.945 63.000 C 320.818 62.670,320.554 62.400,320.357 62.400 C 320.161 62.400,320.000 62.670,320.000 63.000 M327.200 67.563 C 327.200 68.128,327.407 68.271,328.000 68.116 C 328.440 68.001,328.800 67.658,328.800 67.353 C 328.800 67.049,328.440 66.800,328.000 66.800 C 327.480 66.800,327.200 67.067,327.200 67.563 M338.000 73.367 C 338.000 73.715,338.285 74.000,338.633 74.000 C 339.340 74.000,339.217 73.139,338.475 72.892 C 338.214 72.805,338.000 73.018,338.000 73.367 M188.856 110.413 C 188.059 111.077,187.303 111.200,184.005 111.200 C 181.154 111.200,179.973 111.351,179.636 111.757 C 179.342 112.111,178.099 112.368,176.222 112.463 C 174.143 112.568,173.044 112.817,172.504 113.306 C 172.039 113.727,171.092 114.000,170.097 114.000 C 169.167 114.000,168.195 114.262,167.853 114.604 C 167.520 114.937,166.383 115.321,165.324 115.458 C 164.266 115.595,163.118 115.951,162.774 116.249 C 162.429 116.547,161.529 116.905,160.774 117.045 C 160.018 117.184,159.220 117.518,159.000 117.785 C 158.780 118.052,157.821 118.375,156.869 118.502 C 155.917 118.628,154.823 119.017,154.437 119.366 C 154.052 119.715,153.386 120.000,152.957 120.000 C 152.529 120.000,151.870 120.360,151.493 120.800 C 151.116 121.240,150.396 121.600,149.893 121.600 C 149.390 121.600,148.670 121.960,148.293 122.400 C 147.916 122.840,147.175 123.200,146.647 123.200 C 146.118 123.200,145.582 123.470,145.455 123.800 C 145.329 124.130,144.896 124.400,144.494 124.400 C 143.697 124.400,142.380 125.288,141.083 126.700 C 140.628 127.195,139.883 127.606,139.428 127.613 C 138.973 127.620,137.979 128.250,137.219 129.013 C 136.460 129.776,135.491 130.400,135.066 130.400 C 134.642 130.400,133.713 131.016,133.003 131.769 C 132.293 132.522,130.731 133.766,129.533 134.532 C 126.876 136.232,114.566 148.484,114.250 149.744 C 114.125 150.242,113.028 151.709,111.811 153.006 C 110.595 154.302,109.600 155.611,109.600 155.914 C 109.600 156.217,108.970 157.234,108.200 158.174 C 107.430 159.114,106.800 160.151,106.800 160.479 C 106.800 160.807,106.440 161.402,106.000 161.800 C 105.560 162.198,105.200 162.940,105.200 163.448 C 105.200 163.962,104.846 164.562,104.400 164.800 C 103.901 165.067,103.600 165.638,103.600 166.318 C 103.600 166.974,103.282 167.606,102.800 167.907 C 102.360 168.182,102.000 168.833,102.000 169.354 C 102.000 169.876,101.730 170.526,101.400 170.800 C 101.070 171.074,100.800 171.698,100.800 172.187 C 100.800 172.676,100.440 173.402,100.000 173.800 C 99.475 174.275,99.200 175.032,99.200 176.000 C 99.200 176.968,98.925 177.725,98.400 178.200 C 97.960 178.598,97.599 179.391,97.597 179.962 C 97.596 180.533,97.237 181.540,96.800 182.200 C 96.327 182.914,96.004 184.077,96.003 185.071 C 96.001 186.021,95.741 187.002,95.400 187.343 C 95.070 187.673,94.799 188.631,94.797 189.471 C 94.796 190.323,94.443 191.531,94.000 192.200 C 93.418 193.079,93.205 194.078,93.203 195.937 C 93.201 197.865,93.008 198.718,92.400 199.491 C 91.710 200.368,91.600 201.114,91.600 204.922 C 91.600 208.565,91.478 209.472,90.900 210.110 C 89.827 211.296,89.827 242.873,90.900 244.389 C 91.460 245.180,91.600 246.222,91.600 249.600 C 91.600 253.327,91.694 253.903,92.400 254.507 C 93.068 255.079,93.200 255.687,93.200 258.196 C 93.200 260.667,93.342 261.342,94.000 262.000 C 94.619 262.619,94.800 263.333,94.800 265.151 C 94.800 266.753,94.991 267.661,95.400 268.000 C 95.737 268.279,96.000 269.151,96.000 269.987 C 96.000 270.968,96.273 271.723,96.800 272.200 C 97.358 272.705,97.600 273.432,97.600 274.600 C 97.600 275.768,97.842 276.495,98.400 277.000 C 98.840 277.398,99.200 278.106,99.200 278.573 C 99.200 279.040,99.560 279.730,100.000 280.107 C 100.464 280.505,100.800 281.287,100.800 281.972 C 100.800 282.622,100.980 283.264,101.200 283.400 C 101.420 283.536,101.802 284.447,102.048 285.424 C 102.294 286.401,102.658 287.200,102.857 287.200 C 103.057 287.200,103.408 287.605,103.638 288.100 C 104.461 289.874,105.468 291.525,106.128 292.185 C 106.498 292.555,106.800 293.216,106.800 293.655 C 106.800 294.094,107.430 295.048,108.200 295.774 C 108.970 296.500,109.600 297.442,109.600 297.866 C 109.600 298.290,110.320 299.341,111.200 300.200 C 112.080 301.059,112.800 302.048,112.800 302.398 C 112.800 303.662,124.790 315.993,128.103 318.135 C 129.256 318.881,130.740 320.051,131.400 320.735 C 132.060 321.418,132.809 321.983,133.064 321.989 C 133.319 321.995,134.439 322.720,135.552 323.600 C 136.666 324.480,137.769 325.200,138.004 325.200 C 138.431 325.200,140.493 326.550,141.518 327.500 C 141.814 327.775,142.364 328.000,142.740 328.000 C 143.115 328.000,143.730 328.360,144.107 328.800 C 144.484 329.240,145.225 329.600,145.753 329.600 C 146.282 329.600,146.818 329.870,146.945 330.200 C 147.071 330.530,147.632 330.800,148.191 330.800 C 148.750 330.800,149.516 331.160,149.893 331.600 C 150.270 332.040,151.004 332.400,151.526 332.400 C 152.047 332.400,152.931 332.760,153.491 333.200 C 154.050 333.640,154.984 334.000,155.565 334.000 C 156.146 334.000,156.930 334.360,157.307 334.800 C 157.742 335.308,158.487 335.600,159.347 335.600 C 160.092 335.600,160.926 335.870,161.200 336.200 C 161.474 336.530,162.350 336.801,163.149 336.803 C 163.947 336.804,165.140 337.163,165.800 337.600 C 166.519 338.076,167.677 338.396,168.690 338.397 C 169.671 338.399,170.930 338.735,171.690 339.199 C 172.563 339.731,173.707 339.998,175.120 339.999 C 176.286 339.999,177.726 340.245,178.320 340.545 C 178.914 340.844,181.200 341.195,183.400 341.324 C 185.600 341.454,188.188 341.838,189.150 342.180 C 191.695 343.082,213.741 343.090,216.636 342.190 C 217.716 341.854,220.490 341.469,222.800 341.335 C 225.110 341.200,227.486 340.845,228.080 340.545 C 228.674 340.245,230.114 339.999,231.280 339.999 C 232.693 339.998,233.837 339.731,234.710 339.199 C 235.470 338.735,236.729 338.399,237.710 338.397 C 238.723 338.396,239.881 338.076,240.600 337.600 C 241.260 337.163,242.340 336.798,243.000 336.790 C 243.660 336.781,244.549 336.510,244.976 336.187 C 245.404 335.864,246.231 335.600,246.814 335.600 C 247.398 335.600,248.202 335.240,248.600 334.800 C 248.998 334.360,249.763 334.000,250.299 334.000 C 250.835 334.000,251.731 333.640,252.291 333.200 C 252.850 332.760,253.544 332.400,253.833 332.400 C 254.411 332.400,257.976 330.582,258.580 329.979 C 258.789 329.771,259.278 329.600,259.666 329.600 C 260.054 329.600,260.565 329.240,260.800 328.800 C 261.035 328.360,261.627 327.995,262.114 327.989 C 262.601 327.983,263.540 327.427,264.200 326.754 C 264.860 326.080,265.945 325.301,266.612 325.022 C 267.279 324.743,268.359 323.992,269.012 323.353 C 269.665 322.715,271.603 321.024,273.319 319.596 C 275.034 318.168,277.582 315.650,278.981 314.000 C 280.380 312.350,282.259 310.190,283.156 309.200 C 284.054 308.210,284.791 307.258,284.794 307.084 C 284.802 306.629,286.509 304.258,287.100 303.880 C 287.375 303.704,287.600 303.222,287.600 302.809 C 287.600 302.395,287.878 301.779,288.218 301.439 C 289.195 300.462,293.600 291.605,293.600 290.617 C 293.600 290.126,293.937 289.419,294.350 289.046 C 294.762 288.673,295.197 287.641,295.316 286.753 C 295.435 285.865,295.817 284.823,296.166 284.437 C 296.525 284.041,296.800 283.034,296.800 282.117 C 296.800 281.227,297.045 280.294,297.345 280.046 C 297.645 279.797,298.012 278.401,298.162 276.945 C 298.311 275.488,298.695 273.789,299.016 273.168 C 299.352 272.520,299.600 270.937,299.600 269.449 C 299.600 268.024,299.813 265.450,300.073 263.729 C 300.333 262.008,300.558 259.976,300.573 259.213 L 300.600 257.827 296.400 257.333 C 294.090 257.062,290.580 256.654,288.600 256.427 C 286.620 256.200,281.720 256.011,277.712 256.007 C 273.614 256.003,268.625 255.749,266.312 255.428 C 260.880 254.671,242.283 254.277,241.655 254.905 C 241.384 255.176,241.200 256.784,241.200 258.881 C 241.200 261.639,241.026 262.727,240.400 263.896 C 239.960 264.716,239.600 265.981,239.600 266.707 C 239.600 267.510,239.365 268.115,239.000 268.255 C 238.670 268.382,238.400 268.889,238.400 269.382 C 238.400 269.874,238.040 270.693,237.600 271.200 C 237.160 271.707,236.800 272.449,236.800 272.847 C 236.800 273.246,236.440 273.765,236.000 274.000 C 235.560 274.235,235.200 274.594,235.200 274.796 C 235.200 276.047,231.301 280.298,228.400 282.211 C 227.410 282.864,226.464 283.609,226.298 283.868 C 226.131 284.126,225.471 284.453,224.831 284.593 C 224.191 284.734,223.567 285.108,223.446 285.424 C 223.324 285.741,222.719 286.000,222.101 286.000 C 221.473 286.000,220.676 286.352,220.293 286.800 C 219.838 287.331,219.113 287.600,218.135 287.600 C 217.326 287.600,216.353 287.880,215.975 288.223 C 215.521 288.633,213.940 288.966,211.343 289.196 C 209.174 289.389,206.099 289.748,204.508 289.993 C 202.419 290.316,201.032 290.320,199.508 290.007 C 198.349 289.770,195.883 289.400,194.030 289.186 C 192.176 288.972,190.376 288.552,190.030 288.253 C 189.683 287.953,188.723 287.605,187.896 287.479 C 187.069 287.352,186.111 286.968,185.767 286.624 C 185.424 286.281,184.725 286.000,184.214 286.000 C 183.703 286.000,183.181 285.727,183.053 285.394 C 182.925 285.061,182.411 284.601,181.910 284.373 C 181.410 284.145,180.473 283.672,179.828 283.323 C 178.066 282.367,171.467 275.527,170.186 273.328 C 169.568 272.268,168.733 271.165,168.331 270.877 C 167.929 270.590,167.600 269.934,167.600 269.420 C 167.600 268.906,167.347 268.388,167.038 268.270 C 166.728 268.151,166.357 267.514,166.212 266.855 C 166.067 266.195,165.690 265.441,165.374 265.179 C 165.058 264.917,164.800 264.302,164.800 263.813 C 164.800 263.324,164.440 262.598,164.000 262.200 C 163.560 261.802,163.200 261.082,163.200 260.600 C 163.200 260.118,162.840 259.398,162.400 259.000 C 161.784 258.443,161.600 257.768,161.600 256.070 C 161.600 254.692,161.380 253.620,161.013 253.215 C 160.691 252.858,160.307 251.494,160.160 250.183 C 160.014 248.872,159.672 247.530,159.400 247.200 C 159.128 246.870,158.802 245.034,158.674 243.121 C 158.546 241.207,158.162 239.101,157.821 238.440 C 156.915 236.689,156.900 216.140,157.803 214.393 C 158.135 213.752,158.519 211.556,158.657 209.513 C 158.794 207.471,159.129 205.530,159.401 205.200 C 159.672 204.870,159.997 203.546,160.123 202.259 C 160.248 200.971,160.632 199.607,160.975 199.227 C 161.323 198.843,161.600 197.825,161.600 196.930 C 161.600 195.832,161.853 195.095,162.400 194.600 C 162.840 194.202,163.200 193.458,163.200 192.948 C 163.200 192.437,163.559 191.430,163.999 190.710 C 164.438 189.989,164.798 189.098,164.799 188.729 C 164.799 188.359,165.025 187.813,165.300 187.515 C 165.575 187.216,166.325 185.989,166.967 184.786 C 167.609 183.584,168.374 182.456,168.667 182.280 C 168.960 182.104,169.200 181.610,169.200 181.181 C 169.200 180.120,178.365 170.924,179.777 170.570 C 180.375 170.420,180.959 170.050,181.075 169.749 C 181.191 169.447,181.512 169.200,181.789 169.200 C 182.066 169.200,182.750 168.840,183.309 168.400 C 183.869 167.960,184.679 167.600,185.109 167.600 C 185.540 167.600,186.350 167.240,186.909 166.800 C 187.517 166.322,188.532 166.000,189.432 166.000 C 190.304 166.000,191.262 165.706,191.710 165.300 C 192.402 164.674,193.508 164.600,202.200 164.600 C 210.892 164.600,211.998 164.674,212.690 165.300 C 213.167 165.732,214.104 166.000,215.135 166.000 C 216.313 166.000,217.011 166.237,217.493 166.800 C 217.870 167.240,218.565 167.600,219.039 167.600 C 219.992 167.600,223.600 169.486,223.600 169.984 C 223.600 170.158,224.133 170.407,224.785 170.537 C 225.577 170.695,227.269 172.072,229.885 174.686 C 233.874 178.671,234.430 179.360,235.227 181.300 C 235.475 181.905,235.815 182.400,235.982 182.400 C 236.415 182.400,238.400 186.332,238.400 187.188 C 238.400 187.581,238.647 188.107,238.948 188.357 C 239.250 188.607,239.594 189.543,239.714 190.437 C 239.834 191.331,240.206 192.364,240.540 192.734 C 240.875 193.103,241.205 194.304,241.274 195.403 L 241.400 197.400 271.600 197.618 C 288.210 197.738,302.058 197.712,302.374 197.560 C 303.283 197.125,302.982 189.150,301.970 186.849 C 301.547 185.886,301.200 184.324,301.200 183.378 C 301.200 182.396,300.947 181.404,300.611 181.068 C 300.287 180.744,299.902 179.731,299.756 178.817 C 299.610 177.902,299.155 176.496,298.745 175.693 C 298.335 174.889,298.000 173.841,298.000 173.364 C 298.000 172.888,297.730 172.274,297.400 172.000 C 297.070 171.726,296.800 171.174,296.800 170.772 C 296.800 170.371,296.378 169.248,295.861 168.277 C 295.345 167.305,294.810 166.171,294.673 165.755 C 294.536 165.340,294.210 164.640,293.949 164.200 C 293.347 163.187,293.064 162.664,291.781 160.200 C 291.209 159.100,290.394 157.828,289.970 157.374 C 289.547 156.920,289.197 156.200,289.193 155.774 C 289.189 155.348,288.728 154.565,288.167 154.033 C 287.606 153.501,286.813 152.409,286.404 151.607 C 285.994 150.805,285.150 149.603,284.527 148.936 C 283.904 148.269,282.856 146.931,282.197 145.962 C 280.546 143.533,267.900 130.949,266.741 130.582 C 266.224 130.418,264.734 129.320,263.432 128.142 C 262.129 126.964,260.762 126.000,260.394 126.000 C 260.025 126.000,259.398 125.640,259.000 125.200 C 258.602 124.760,258.060 124.400,257.796 124.400 C 257.531 124.400,256.490 123.770,255.482 123.000 C 254.473 122.230,253.365 121.600,253.020 121.600 C 252.675 121.600,252.084 121.240,251.707 120.800 C 251.330 120.360,250.640 120.000,250.172 120.000 C 249.705 120.000,248.907 119.640,248.400 119.200 C 247.893 118.760,247.074 118.400,246.582 118.400 C 246.089 118.400,245.582 118.130,245.455 117.800 C 245.303 117.404,244.677 117.200,243.609 117.200 C 242.487 117.200,241.782 116.955,241.307 116.400 C 240.828 115.840,240.127 115.600,238.973 115.600 C 237.832 115.600,237.101 115.354,236.600 114.800 C 236.090 114.237,235.368 114.000,234.158 114.000 C 232.998 114.000,232.323 113.792,232.081 113.359 C 231.826 112.903,230.922 112.659,228.961 112.514 C 227.442 112.402,225.801 112.060,225.314 111.755 C 224.711 111.377,223.145 111.200,220.410 111.200 C 216.887 111.200,216.308 111.101,215.707 110.400 C 214.653 109.169,190.335 109.181,188.856 110.413 M18.875 354.695 C 19.076 355.738,20.400 355.854,20.400 354.829 C 20.400 354.257,20.143 354.000,19.571 354.000 C 18.998 354.000,18.783 354.215,18.875 354.695 M29.271 360.662 C 29.459 361.626,30.800 361.716,30.800 360.765 C 30.800 360.258,30.521 360.000,29.971 360.000 C 29.413 360.000,29.184 360.217,29.271 360.662 M37.200 365.157 C 37.200 365.354,37.470 365.618,37.800 365.745 C 38.165 365.885,38.400 365.745,38.400 365.387 C 38.400 365.064,38.130 364.800,37.800 364.800 C 37.470 364.800,37.200 364.961,37.200 365.157 M47.200 370.720 C 47.200 371.134,48.066 372.000,48.480 372.000 C 48.656 372.000,48.800 371.640,48.800 371.200 C 48.800 370.667,48.533 370.400,48.000 370.400 C 47.560 370.400,47.200 370.544,47.200 370.720 " stroke="none" fill="#fbfbfb" fill-rule="evenodd"></path><path id="path1" d="M217.632 4.700 C 217.610 5.305,217.830 5.598,218.300 5.594 C 218.732 5.590,218.831 5.475,218.560 5.294 C 218.318 5.132,218.017 4.730,217.892 4.400 C 217.739 3.999,217.653 4.099,217.632 4.700 M228.054 10.500 C 228.010 11.403,228.162 11.592,228.900 11.554 C 229.538 11.521,229.603 11.455,229.125 11.329 C 228.753 11.231,228.373 10.757,228.279 10.275 C 228.139 9.555,228.099 9.594,228.054 10.500 M267.084 33.200 C 267.217 33.707,267.606 33.983,268.147 33.954 C 268.823 33.917,268.855 33.869,268.300 33.724 C 267.915 33.624,267.600 33.285,267.600 32.971 C 267.600 32.657,267.437 32.400,267.237 32.400 C 267.038 32.400,266.969 32.760,267.084 33.200 M277.646 39.100 C 277.611 39.793,277.807 39.989,278.500 39.954 C 279.138 39.921,279.203 39.855,278.725 39.729 C 278.353 39.631,277.969 39.247,277.871 38.875 C 277.745 38.397,277.679 38.462,277.646 39.100 M288.046 45.100 C 288.011 45.793,288.207 45.989,288.900 45.954 C 289.538 45.921,289.603 45.855,289.125 45.729 C 288.753 45.631,288.369 45.247,288.271 44.875 C 288.145 44.397,288.079 44.462,288.046 45.100 M337.646 73.500 C 337.611 74.193,337.807 74.389,338.500 74.354 C 339.138 74.321,339.203 74.255,338.725 74.129 C 338.353 74.031,337.969 73.647,337.871 73.275 C 337.745 72.797,337.679 72.862,337.646 73.500 M347.860 82.227 C 344.949 85.138,343.000 85.288,343.000 82.600 C 343.000 81.587,342.817 81.000,342.500 81.000 C 341.562 81.000,282.800 140.065,282.800 141.008 C 282.800 141.485,282.453 142.190,282.029 142.574 C 281.282 143.250,281.048 143.061,274.654 136.636 C 270.323 132.285,267.762 130.000,267.215 130.000 C 266.722 130.000,265.418 129.016,264.032 127.600 C 262.351 125.882,261.387 125.200,260.642 125.200 C 259.982 125.200,259.600 124.980,259.600 124.600 C 259.600 124.270,259.358 124.000,259.062 124.000 C 258.766 124.000,258.198 123.640,257.800 123.200 C 257.402 122.760,256.654 122.400,256.138 122.400 C 255.603 122.400,255.200 122.161,255.200 121.843 C 255.200 121.248,254.365 120.800,253.256 120.800 C 252.883 120.800,252.270 120.440,251.893 120.000 C 251.516 119.560,250.775 119.200,250.247 119.200 C 249.718 119.200,249.182 118.930,249.055 118.600 C 248.922 118.251,248.323 118.000,247.627 118.000 C 246.838 118.000,246.282 117.727,246.000 117.200 C 245.671 116.585,245.162 116.400,243.800 116.400 C 242.438 116.400,241.929 116.215,241.600 115.600 C 241.265 114.973,240.762 114.800,239.282 114.800 C 237.826 114.800,237.278 114.617,236.893 114.000 C 236.517 113.398,235.960 113.200,234.639 113.200 C 233.449 113.200,232.812 113.007,232.655 112.600 C 232.482 112.148,231.753 112.000,229.701 112.000 C 227.473 112.000,226.853 111.855,226.293 111.200 C 225.682 110.486,225.113 110.400,221.018 110.400 C 216.838 110.400,216.390 110.329,216.000 109.600 C 215.236 108.173,188.400 108.409,188.400 109.843 C 188.400 110.286,187.474 110.400,183.861 110.400 C 179.897 110.400,179.206 110.501,178.400 111.200 C 177.688 111.818,176.903 112.000,174.959 112.000 C 173.249 112.000,172.337 112.176,172.120 112.548 C 171.932 112.870,170.856 113.172,169.506 113.280 C 168.245 113.382,166.895 113.742,166.506 114.082 C 166.118 114.421,164.918 114.792,163.840 114.907 C 162.625 115.036,161.742 115.360,161.520 115.758 C 161.318 116.118,160.649 116.400,159.994 116.400 C 159.238 116.400,158.678 116.681,158.400 117.200 C 158.069 117.818,157.562 118.000,156.173 118.000 C 154.944 118.000,154.302 118.190,154.145 118.600 C 154.018 118.930,153.484 119.200,152.957 119.200 C 152.431 119.200,151.640 119.560,151.200 120.000 C 150.760 120.440,149.956 120.800,149.414 120.800 C 148.838 120.800,148.250 121.132,148.000 121.600 C 147.723 122.117,147.162 122.400,146.413 122.400 C 145.605 122.400,145.177 122.642,145.000 123.200 C 144.821 123.763,144.395 124.000,143.560 124.000 C 142.889 124.000,142.278 124.254,142.150 124.585 C 142.027 124.906,141.583 125.279,141.163 125.412 C 140.743 125.545,140.400 125.912,140.400 126.227 C 140.400 126.584,139.986 126.801,139.300 126.804 C 138.522 126.807,137.791 127.273,136.800 128.400 C 135.861 129.468,135.065 129.993,134.381 129.996 C 133.735 129.999,133.004 130.441,132.381 131.205 C 131.842 131.868,130.860 132.675,130.200 132.997 C 129.540 133.320,128.660 133.813,128.245 134.092 C 126.984 134.941,114.800 147.190,114.800 147.609 C 114.800 147.824,114.549 148.000,114.243 148.000 C 113.667 148.000,113.200 148.829,113.200 149.850 C 113.200 150.172,112.210 151.401,111.000 152.583 C 109.702 153.850,108.800 155.078,108.800 155.578 C 108.800 156.044,108.170 157.003,107.400 157.710 C 106.511 158.525,106.000 159.362,106.000 160.001 C 106.000 160.574,105.656 161.223,105.200 161.507 C 104.701 161.819,104.400 162.440,104.400 163.157 C 104.400 163.970,104.166 164.368,103.600 164.516 C 103.025 164.666,102.800 165.062,102.800 165.920 C 102.800 166.613,102.548 167.211,102.200 167.345 C 101.851 167.478,101.600 168.077,101.600 168.773 C 101.600 169.562,101.327 170.118,100.800 170.400 C 100.283 170.677,100.000 171.238,100.000 171.987 C 100.000 172.795,99.758 173.223,99.200 173.400 C 98.549 173.607,98.400 174.005,98.400 175.538 C 98.400 176.927,98.190 177.602,97.600 178.107 C 97.160 178.484,96.800 179.225,96.800 179.753 C 96.800 180.282,96.530 180.818,96.200 180.945 C 95.752 181.117,95.600 181.833,95.600 183.773 C 95.600 185.962,95.474 186.439,94.800 186.800 C 94.183 187.130,94.000 187.638,94.000 189.014 C 94.000 190.267,93.761 191.039,93.200 191.600 C 92.533 192.267,92.400 192.933,92.400 195.600 C 92.400 198.058,92.272 198.800,91.847 198.800 C 91.035 198.800,90.812 200.100,90.805 204.857 C 90.801 208.269,90.681 209.160,90.200 209.345 C 89.295 209.692,89.295 244.449,90.200 245.200 C 90.663 245.584,90.800 246.647,90.800 249.849 C 90.800 253.467,90.903 254.103,91.600 254.800 C 92.266 255.466,92.400 256.133,92.400 258.786 C 92.400 261.562,92.503 262.027,93.200 262.400 C 93.873 262.760,94.000 263.238,94.000 265.400 C 94.000 267.562,94.127 268.040,94.800 268.400 C 95.431 268.738,95.600 269.238,95.600 270.771 C 95.600 272.130,95.781 272.784,96.200 272.945 C 96.596 273.097,96.800 273.723,96.800 274.787 C 96.800 275.867,97.065 276.665,97.600 277.200 C 98.040 277.640,98.400 278.444,98.400 278.986 C 98.400 279.562,98.732 280.150,99.200 280.400 C 99.815 280.729,100.000 281.238,100.000 282.600 C 100.000 283.962,100.185 284.471,100.800 284.800 C 101.319 285.078,101.600 285.638,101.600 286.394 C 101.600 287.036,101.829 287.704,102.108 287.880 C 102.388 288.056,102.845 288.650,103.124 289.200 C 104.204 291.329,104.764 292.148,105.371 292.488 C 105.717 292.681,106.000 293.286,106.000 293.832 C 106.000 294.455,106.521 295.303,107.400 296.110 C 108.170 296.816,108.800 297.696,108.800 298.065 C 108.800 299.166,109.250 300.000,109.843 300.000 C 110.149 300.000,110.400 300.258,110.400 300.573 C 110.400 300.888,110.760 301.260,111.200 301.400 C 111.720 301.565,112.000 302.005,112.000 302.659 C 112.000 303.377,112.857 304.522,114.996 306.660 L 117.992 309.656 117.386 310.828 C 116.713 312.128,115.961 312.317,115.186 311.383 C 114.798 310.916,114.786 310.654,115.137 310.303 C 115.770 309.670,115.719 308.821,115.033 308.557 C 114.338 308.290,53.666 368.797,53.906 369.517 C 54.102 370.107,55.289 370.151,55.849 369.591 C 56.129 369.311,56.477 369.422,56.945 369.940 C 57.754 370.833,55.542 373.600,54.020 373.600 C 52.705 373.600,53.505 374.693,55.028 374.979 C 55.844 375.132,56.400 375.472,56.400 375.818 C 56.400 376.138,56.649 376.400,56.953 376.400 C 57.258 376.400,57.601 376.760,57.716 377.200 C 57.876 377.813,58.262 378.000,59.363 378.000 C 60.533 378.000,60.800 378.148,60.800 378.800 C 60.800 379.442,61.067 379.600,62.153 379.600 C 63.170 379.600,63.559 379.799,63.716 380.400 C 63.876 381.013,64.262 381.200,65.363 381.200 C 66.374 381.200,66.800 381.378,66.800 381.800 C 66.800 382.130,67.049 382.400,67.353 382.400 C 67.658 382.400,68.001 382.760,68.116 383.200 C 68.276 383.813,68.662 384.000,69.763 384.000 C 70.933 384.000,71.200 384.148,71.200 384.800 C 71.200 385.445,71.467 385.600,72.573 385.600 C 73.595 385.600,74.011 385.805,74.200 386.400 C 74.389 386.995,74.805 387.200,75.827 387.200 C 76.781 387.200,77.200 387.383,77.200 387.800 C 77.200 388.133,77.556 388.400,78.000 388.400 C 78.533 388.400,78.800 388.667,78.800 389.200 C 78.800 389.842,79.067 390.000,80.153 390.000 C 81.170 390.000,81.559 390.199,81.716 390.800 C 81.875 391.406,82.262 391.600,83.316 391.600 C 84.370 391.600,84.757 391.794,84.916 392.400 C 85.066 392.975,85.462 393.200,86.320 393.200 C 87.013 393.200,87.611 393.452,87.745 393.800 C 87.871 394.130,88.251 394.400,88.587 394.400 C 88.933 394.400,89.200 394.748,89.200 395.200 C 89.200 395.842,89.467 396.000,90.553 396.000 C 91.570 396.000,91.959 396.199,92.116 396.800 C 92.276 397.413,92.662 397.600,93.763 397.600 C 94.725 397.600,95.200 397.784,95.200 398.157 C 95.200 398.769,96.041 399.200,97.233 399.200 C 97.655 399.200,98.000 399.470,98.000 399.800 C 98.000 400.130,98.339 400.400,98.753 400.400 C 99.170 400.400,99.600 400.757,99.716 401.200 C 99.876 401.813,100.262 402.000,101.363 402.000 C 102.533 402.000,102.800 402.148,102.800 402.800 C 102.800 403.448,103.067 403.600,104.200 403.600 C 105.214 403.600,105.600 403.776,105.600 404.237 C 105.600 404.588,105.960 404.969,106.400 405.084 C 106.840 405.199,107.200 405.542,107.200 405.847 C 107.200 406.209,107.668 406.400,108.553 406.400 C 109.570 406.400,109.959 406.599,110.116 407.200 C 110.275 407.806,110.662 408.000,111.716 408.000 C 112.770 408.000,113.157 408.194,113.316 408.800 C 113.468 409.383,113.862 409.600,114.763 409.600 C 115.628 409.600,116.000 409.792,116.000 410.237 C 116.000 410.588,116.360 410.969,116.800 411.084 C 117.240 411.199,117.600 411.542,117.600 411.847 C 117.600 412.226,118.104 412.400,119.200 412.400 C 120.533 412.400,120.800 412.533,120.800 413.200 C 120.800 413.848,121.067 414.000,122.200 414.000 C 123.333 414.000,123.600 414.152,123.600 414.800 C 123.600 415.467,123.867 415.600,125.200 415.600 C 126.533 415.600,126.800 415.733,126.800 416.400 C 126.800 416.844,127.067 417.200,127.400 417.200 C 127.730 417.200,128.000 417.470,128.000 417.800 C 128.000 418.233,128.444 418.400,129.600 418.400 C 130.933 418.400,131.200 418.533,131.200 419.200 C 131.200 419.842,131.467 420.000,132.553 420.000 C 133.570 420.000,133.959 420.199,134.116 420.800 C 134.276 421.413,134.662 421.600,135.763 421.600 C 136.774 421.600,137.200 421.778,137.200 422.200 C 137.200 422.530,137.458 422.800,137.773 422.800 C 138.088 422.800,138.460 423.160,138.600 423.600 C 138.787 424.188,139.205 424.400,140.180 424.400 C 141.170 424.400,141.560 424.603,141.716 425.200 C 141.867 425.778,142.262 426.000,143.136 426.000 C 143.995 426.000,144.420 426.232,144.600 426.800 C 144.789 427.395,145.205 427.600,146.227 427.600 C 147.181 427.600,147.600 427.783,147.600 428.200 C 147.600 428.533,147.956 428.800,148.400 428.800 C 148.933 428.800,149.200 429.067,149.200 429.600 C 149.200 430.242,149.467 430.400,150.553 430.400 C 151.570 430.400,151.959 430.599,152.116 431.200 C 152.276 431.813,152.662 432.000,153.763 432.000 C 154.553 432.000,155.200 432.171,155.200 432.379 C 155.200 433.308,157.140 434.800,158.346 434.800 C 159.333 434.800,159.600 434.970,159.600 435.600 C 159.600 436.242,159.867 436.400,160.953 436.400 C 161.970 436.400,162.359 436.599,162.516 437.200 C 162.676 437.813,163.062 438.000,164.163 438.000 C 165.144 438.000,165.600 438.182,165.600 438.573 C 165.600 438.888,165.960 439.260,166.400 439.400 C 166.840 439.540,167.200 439.912,167.200 440.227 C 167.200 440.611,167.645 440.800,168.553 440.800 C 169.570 440.800,169.959 440.999,170.116 441.600 C 170.276 442.213,170.662 442.400,171.763 442.400 C 172.933 442.400,173.200 442.548,173.200 443.200 C 173.200 443.848,173.467 444.000,174.600 444.000 C 175.549 444.000,176.000 444.185,176.000 444.573 C 176.000 444.888,176.360 445.260,176.800 445.400 C 177.240 445.540,177.600 445.912,177.600 446.227 C 177.600 446.611,178.045 446.800,178.953 446.800 C 179.970 446.800,180.359 446.999,180.516 447.600 C 180.676 448.213,181.062 448.400,182.163 448.400 C 182.953 448.400,183.600 448.580,183.600 448.800 C 183.600 449.060,189.333 449.200,200.000 449.200 C 210.667 449.200,216.400 449.060,216.400 448.800 C 216.400 448.580,217.018 448.400,217.773 448.400 C 218.795 448.400,219.211 448.195,219.400 447.600 C 219.589 447.005,220.005 446.800,221.027 446.800 C 222.017 446.800,222.400 446.622,222.400 446.163 C 222.400 445.812,222.760 445.431,223.200 445.316 C 223.640 445.201,224.000 444.858,224.000 444.553 C 224.000 444.188,224.475 444.000,225.400 444.000 C 226.533 444.000,226.800 443.848,226.800 443.200 C 226.800 442.548,227.067 442.400,228.237 442.400 C 229.338 442.400,229.724 442.213,229.884 441.600 C 230.041 440.999,230.430 440.800,231.447 440.800 C 232.332 440.800,232.800 440.609,232.800 440.247 C 232.800 439.942,233.160 439.599,233.600 439.484 C 234.040 439.369,234.400 438.988,234.400 438.637 C 234.400 438.180,234.782 438.000,235.753 438.000 C 236.770 438.000,237.159 437.801,237.316 437.200 C 237.476 436.587,237.862 436.400,238.963 436.400 C 240.133 436.400,240.400 436.252,240.400 435.600 C 240.400 434.933,240.667 434.800,242.000 434.800 C 243.156 434.800,243.600 434.633,243.600 434.200 C 243.600 433.870,243.870 433.600,244.200 433.600 C 244.533 433.600,244.800 433.244,244.800 432.800 C 244.800 432.133,245.067 432.000,246.400 432.000 C 247.733 432.000,248.000 431.867,248.000 431.200 C 248.000 430.552,248.267 430.400,249.400 430.400 C 250.533 430.400,250.800 430.248,250.800 429.600 C 250.800 429.067,251.067 428.800,251.600 428.800 C 252.044 428.800,252.400 428.533,252.400 428.200 C 252.400 427.778,252.826 427.600,253.837 427.600 C 254.938 427.600,255.324 427.413,255.484 426.800 C 255.641 426.199,256.030 426.000,257.047 426.000 C 258.133 426.000,258.400 425.842,258.400 425.200 C 258.400 424.533,258.667 424.400,260.000 424.400 C 261.333 424.400,261.600 424.267,261.600 423.600 C 261.600 423.156,261.867 422.800,262.200 422.800 C 262.530 422.800,262.800 422.530,262.800 422.200 C 262.800 421.767,263.244 421.600,264.400 421.600 C 265.733 421.600,266.000 421.467,266.000 420.800 C 266.000 420.152,266.267 420.000,267.400 420.000 C 268.533 420.000,268.800 419.848,268.800 419.200 C 268.800 418.533,269.067 418.400,270.400 418.400 C 271.496 418.400,272.000 418.226,272.000 417.847 C 272.000 417.542,272.360 417.199,272.800 417.084 C 273.240 416.969,273.600 416.588,273.600 416.237 C 273.600 415.776,273.986 415.600,275.000 415.600 C 276.133 415.600,276.400 415.448,276.400 414.800 C 276.400 414.148,276.667 414.000,277.837 414.000 C 278.938 414.000,279.324 413.813,279.484 413.200 C 279.641 412.599,280.030 412.400,281.047 412.400 C 281.932 412.400,282.400 412.209,282.400 411.847 C 282.400 411.542,282.760 411.199,283.200 411.084 C 283.640 410.969,284.000 410.588,284.000 410.237 C 284.000 409.776,284.386 409.600,285.400 409.600 C 286.533 409.600,286.800 409.448,286.800 408.800 C 286.800 408.155,287.067 408.000,288.173 408.000 C 289.195 408.000,289.611 407.795,289.800 407.200 C 289.989 406.605,290.405 406.400,291.427 406.400 C 292.329 406.400,292.800 406.210,292.800 405.847 C 292.800 405.542,293.160 405.199,293.600 405.084 C 294.040 404.969,294.400 404.588,294.400 404.237 C 294.400 403.776,294.786 403.600,295.800 403.600 C 296.933 403.600,297.200 403.448,297.200 402.800 C 297.200 402.148,297.467 402.000,298.637 402.000 C 299.738 402.000,300.124 401.813,300.284 401.200 C 300.441 400.599,300.830 400.400,301.847 400.400 C 302.732 400.400,303.200 400.209,303.200 399.847 C 303.200 399.542,303.560 399.199,304.000 399.084 C 304.440 398.969,304.800 398.588,304.800 398.237 C 304.800 397.778,305.183 397.600,306.173 397.600 C 307.195 397.600,307.611 397.395,307.800 396.800 C 307.989 396.205,308.405 396.000,309.427 396.000 C 310.533 396.000,310.800 395.845,310.800 395.200 C 310.800 394.667,311.067 394.400,311.600 394.400 C 312.044 394.400,312.400 394.133,312.400 393.800 C 312.400 393.381,312.822 393.200,313.800 393.200 C 314.933 393.200,315.200 393.048,315.200 392.400 C 315.200 391.733,315.467 391.600,316.800 391.600 C 318.133 391.600,318.400 391.467,318.400 390.800 C 318.400 390.152,318.667 390.000,319.800 390.000 C 320.933 390.000,321.200 389.848,321.200 389.200 C 321.200 388.667,321.467 388.400,322.000 388.400 C 322.444 388.400,322.800 388.133,322.800 387.800 C 322.800 387.378,323.226 387.200,324.237 387.200 C 325.338 387.200,325.724 387.013,325.884 386.400 C 326.034 385.826,326.430 385.600,327.284 385.600 C 328.138 385.600,328.534 385.374,328.684 384.800 C 328.843 384.194,329.230 384.000,330.284 384.000 C 331.338 384.000,331.725 383.806,331.884 383.200 C 331.999 382.760,332.342 382.400,332.647 382.400 C 332.951 382.400,333.200 382.130,333.200 381.800 C 333.200 381.432,333.574 381.200,334.167 381.200 C 335.548 381.200,336.400 380.802,336.400 380.157 C 336.400 379.787,336.870 379.600,337.800 379.600 C 338.933 379.600,339.200 379.448,339.200 378.800 C 339.200 378.148,339.467 378.000,340.637 378.000 C 341.738 378.000,342.124 377.813,342.284 377.200 C 342.400 376.757,342.830 376.400,343.247 376.400 C 343.661 376.400,344.000 376.130,344.000 375.800 C 344.000 375.470,344.345 375.200,344.767 375.200 C 345.959 375.200,346.800 374.769,346.800 374.157 C 346.800 373.784,347.275 373.600,348.237 373.600 C 349.338 373.600,349.724 373.413,349.884 372.800 C 350.041 372.199,350.430 372.000,351.447 372.000 C 352.533 372.000,352.800 371.842,352.800 371.200 C 352.800 370.667,353.067 370.400,353.600 370.400 C 354.044 370.400,354.400 370.133,354.400 369.800 C 354.400 369.381,354.822 369.200,355.800 369.200 C 356.933 369.200,357.200 369.048,357.200 368.400 C 357.200 367.733,357.467 367.600,358.800 367.600 C 360.133 367.600,360.400 367.467,360.400 366.800 C 360.400 366.356,360.667 366.000,361.000 366.000 C 361.330 366.000,361.600 365.730,361.600 365.400 C 361.600 364.978,362.026 364.800,363.037 364.800 C 364.138 364.800,364.524 364.613,364.684 364.000 C 364.841 363.399,365.230 363.200,366.247 363.200 C 367.333 363.200,367.600 363.042,367.600 362.400 C 367.600 361.748,367.867 361.600,369.037 361.600 C 370.138 361.600,370.524 361.413,370.684 360.800 C 370.800 360.357,371.230 360.000,371.647 360.000 C 372.061 360.000,372.400 359.730,372.400 359.400 C 372.400 358.981,372.822 358.800,373.800 358.800 C 374.933 358.800,375.200 358.648,375.200 358.000 C 375.200 357.355,375.467 357.200,376.573 357.200 C 377.595 357.200,378.011 356.995,378.200 356.400 C 378.389 355.805,378.805 355.600,379.827 355.600 C 380.933 355.600,381.200 355.445,381.200 354.800 C 381.200 354.267,381.467 354.000,382.000 354.000 C 382.444 354.000,382.800 353.733,382.800 353.400 C 382.800 352.981,383.222 352.800,384.200 352.800 C 385.333 352.800,385.600 352.648,385.600 352.000 C 385.600 351.535,385.867 351.200,386.237 351.200 C 386.588 351.200,386.969 350.840,387.084 350.400 C 387.199 349.960,387.559 349.600,387.884 349.600 C 388.209 349.600,388.569 349.240,388.684 348.800 C 388.800 348.357,389.230 348.000,389.647 348.000 C 390.061 348.000,390.400 347.730,390.400 347.400 C 390.400 347.070,390.670 346.800,391.000 346.800 C 391.333 346.800,391.600 346.444,391.600 346.000 C 391.600 345.535,391.867 345.200,392.237 345.200 C 392.588 345.200,392.969 344.840,393.084 344.400 C 393.199 343.960,393.559 343.600,393.884 343.600 C 394.209 343.600,394.569 343.240,394.684 342.800 C 394.800 342.357,395.230 342.000,395.647 342.000 C 396.241 342.000,396.400 341.704,396.400 340.600 C 396.400 339.622,396.581 339.200,397.000 339.200 C 397.433 339.200,397.600 338.756,397.600 337.600 C 397.600 336.267,397.733 336.000,398.400 336.000 C 399.103 336.000,399.200 335.733,399.200 333.800 C 399.200 332.590,399.380 331.600,399.600 331.600 C 399.866 331.600,400.000 296.133,400.000 226.000 C 400.000 155.867,399.866 120.400,399.600 120.400 C 399.380 120.400,399.200 119.483,399.200 118.363 C 399.200 116.662,399.068 116.291,398.400 116.116 C 397.799 115.959,397.600 115.570,397.600 114.553 C 397.600 113.617,397.415 113.200,397.000 113.200 C 396.578 113.200,396.400 112.774,396.400 111.763 C 396.400 110.685,396.209 110.275,395.637 110.126 C 395.217 110.016,394.784 109.583,394.674 109.163 C 394.565 108.743,394.188 108.400,393.837 108.400 C 393.487 108.400,393.200 108.130,393.200 107.800 C 393.200 107.467,392.844 107.200,392.400 107.200 C 391.867 107.200,391.600 106.933,391.600 106.400 C 391.600 105.960,391.351 105.600,391.047 105.600 C 390.742 105.600,390.399 105.240,390.284 104.800 C 390.169 104.360,389.788 104.000,389.437 104.000 C 389.087 104.000,388.800 103.742,388.800 103.427 C 388.800 103.112,388.440 102.740,388.000 102.600 C 387.560 102.460,387.200 102.088,387.200 101.773 C 387.200 101.458,386.840 101.200,386.400 101.200 C 385.867 101.200,385.600 100.933,385.600 100.400 C 385.600 99.758,385.333 99.600,384.247 99.600 C 383.230 99.600,382.841 99.401,382.684 98.800 C 382.524 98.187,382.138 98.000,381.037 98.000 C 380.247 98.000,379.600 97.828,379.600 97.618 C 379.600 96.760,377.524 95.200,376.382 95.200 C 375.467 95.200,375.200 95.019,375.200 94.400 C 375.200 93.781,374.933 93.600,374.018 93.600 C 372.876 93.600,370.800 92.040,370.800 91.182 C 370.800 90.972,370.080 90.800,369.200 90.800 C 367.867 90.800,367.600 90.667,367.600 90.000 C 367.600 89.358,367.333 89.200,366.247 89.200 C 365.230 89.200,364.841 89.001,364.684 88.400 C 364.524 87.787,364.138 87.600,363.037 87.600 C 362.013 87.600,361.600 87.424,361.600 86.987 C 361.600 86.651,361.330 86.271,361.000 86.145 C 360.670 86.018,360.400 85.664,360.400 85.357 C 360.400 84.974,359.901 84.800,358.800 84.800 C 357.467 84.800,357.200 84.667,357.200 84.000 C 357.200 83.352,356.933 83.200,355.800 83.200 C 354.667 83.200,354.400 83.048,354.400 82.400 C 354.400 81.733,354.133 81.600,352.800 81.600 C 351.467 81.600,351.200 81.467,351.200 80.800 C 351.200 79.462,350.196 79.891,347.860 82.227 M215.707 110.400 C 216.308 111.101,216.887 111.200,220.410 111.200 C 223.145 111.200,224.711 111.377,225.314 111.755 C 225.801 112.060,227.442 112.402,228.961 112.514 C 230.922 112.659,231.826 112.903,232.081 113.359 C 232.323 113.792,232.998 114.000,234.158 114.000 C 235.368 114.000,236.090 114.237,236.600 114.800 C 237.101 115.354,237.832 115.600,238.973 115.600 C 240.127 115.600,240.828 115.840,241.307 116.400 C 241.782 116.955,242.487 117.200,243.609 117.200 C 244.677 117.200,245.303 117.404,245.455 117.800 C 245.582 118.130,246.089 118.400,246.582 118.400 C 247.074 118.400,247.893 118.760,248.400 119.200 C 248.907 119.640,249.705 120.000,250.172 120.000 C 250.640 120.000,251.330 120.360,251.707 120.800 C 252.084 121.240,252.675 121.600,253.020 121.600 C 253.365 121.600,254.473 122.230,255.482 123.000 C 256.490 123.770,257.531 124.400,257.796 124.400 C 258.060 124.400,258.602 124.760,259.000 125.200 C 259.398 125.640,260.025 126.000,260.394 126.000 C 260.762 126.000,262.129 126.964,263.432 128.142 C 264.734 129.320,266.224 130.418,266.741 130.582 C 267.900 130.949,280.546 143.533,282.197 145.962 C 282.856 146.931,283.904 148.269,284.527 148.936 C 285.150 149.603,285.994 150.805,286.404 151.607 C 286.813 152.409,287.606 153.501,288.167 154.033 C 288.728 154.565,289.189 155.348,289.193 155.774 C 289.197 156.200,289.547 156.920,289.970 157.374 C 290.394 157.828,291.209 159.100,291.781 160.200 C 293.064 162.664,293.347 163.187,293.949 164.200 C 294.210 164.640,294.536 165.340,294.673 165.755 C 294.810 166.171,295.345 167.305,295.861 168.277 C 296.378 169.248,296.800 170.371,296.800 170.772 C 296.800 171.174,297.070 171.726,297.400 172.000 C 297.730 172.274,298.000 172.888,298.000 173.364 C 298.000 173.841,298.335 174.889,298.745 175.693 C 299.155 176.496,299.610 177.902,299.756 178.817 C 299.902 179.731,300.287 180.744,300.611 181.068 C 300.947 181.404,301.200 182.396,301.200 183.378 C 301.200 184.324,301.547 185.886,301.970 186.849 C 302.982 189.150,303.283 197.125,302.374 197.560 C 302.058 197.712,288.210 197.738,271.600 197.618 L 241.400 197.400 241.274 195.403 C 241.205 194.304,240.875 193.103,240.540 192.734 C 240.206 192.364,239.834 191.331,239.714 190.437 C 239.594 189.543,239.250 188.607,238.948 188.357 C 238.647 188.107,238.400 187.581,238.400 187.188 C 238.400 186.332,236.415 182.400,235.982 182.400 C 235.815 182.400,235.475 181.905,235.227 181.300 C 234.430 179.360,233.874 178.671,229.885 174.686 C 227.269 172.072,225.577 170.695,224.785 170.537 C 224.133 170.407,223.600 170.158,223.600 169.984 C 223.600 169.486,219.992 167.600,219.039 167.600 C 218.565 167.600,217.870 167.240,217.493 166.800 C 217.011 166.237,216.313 166.000,215.135 166.000 C 214.104 166.000,213.167 165.732,212.690 165.300 C 211.998 164.674,210.892 164.600,202.200 164.600 C 193.508 164.600,192.402 164.674,191.710 165.300 C 191.262 165.706,190.304 166.000,189.432 166.000 C 188.532 166.000,187.517 166.322,186.909 166.800 C 186.350 167.240,185.540 167.600,185.109 167.600 C 184.679 167.600,183.869 167.960,183.309 168.400 C 182.750 168.840,182.066 169.200,181.789 169.200 C 181.512 169.200,181.191 169.447,181.075 169.749 C 180.959 170.050,180.375 170.420,179.777 170.570 C 178.365 170.924,169.200 180.120,169.200 181.181 C 169.200 181.610,168.960 182.104,168.667 182.280 C 168.374 182.456,167.609 183.584,166.967 184.786 C 166.325 185.989,165.575 187.216,165.300 187.515 C 165.025 187.813,164.799 188.359,164.799 188.729 C 164.798 189.098,164.438 189.989,163.999 190.710 C 163.559 191.430,163.200 192.437,163.200 192.948 C 163.200 193.458,162.840 194.202,162.400 194.600 C 161.853 195.095,161.600 195.832,161.600 196.930 C 161.600 197.825,161.323 198.843,160.975 199.227 C 160.632 199.607,160.248 200.971,160.123 202.259 C 159.997 203.546,159.672 204.870,159.401 205.200 C 159.129 205.530,158.794 207.471,158.657 209.513 C 158.519 211.556,158.135 213.752,157.803 214.393 C 156.900 216.140,156.915 236.689,157.821 238.440 C 158.162 239.101,158.546 241.207,158.674 243.121 C 158.802 245.034,159.128 246.870,159.400 247.200 C 159.672 247.530,160.014 248.872,160.160 250.183 C 160.307 251.494,160.691 252.858,161.013 253.215 C 161.380 253.620,161.600 254.692,161.600 256.070 C 161.600 257.768,161.784 258.443,162.400 259.000 C 162.840 259.398,163.200 260.118,163.200 260.600 C 163.200 261.082,163.560 261.802,164.000 262.200 C 164.440 262.598,164.800 263.324,164.800 263.813 C 164.800 264.302,165.058 264.917,165.374 265.179 C 165.690 265.441,166.067 266.195,166.212 266.855 C 166.357 267.514,166.728 268.151,167.038 268.270 C 167.347 268.388,167.600 268.906,167.600 269.420 C 167.600 269.934,167.929 270.590,168.331 270.877 C 168.733 271.165,169.568 272.268,170.186 273.328 C 171.467 275.527,178.066 282.367,179.828 283.323 C 180.473 283.672,181.410 284.145,181.910 284.373 C 182.411 284.601,182.925 285.061,183.053 285.394 C 183.181 285.727,183.703 286.000,184.214 286.000 C 184.725 286.000,185.424 286.281,185.767 286.624 C 186.111 286.968,187.069 287.352,187.896 287.479 C 188.723 287.605,189.683 287.953,190.030 288.253 C 190.376 288.552,192.176 288.972,194.030 289.186 C 195.883 289.400,198.349 289.770,199.508 290.007 C 201.032 290.320,202.419 290.316,204.508 289.993 C 206.099 289.748,209.174 289.389,211.343 289.196 C 213.940 288.966,215.521 288.633,215.975 288.223 C 216.353 287.880,217.326 287.600,218.135 287.600 C 219.113 287.600,219.838 287.331,220.293 286.800 C 220.676 286.352,221.473 286.000,222.101 286.000 C 222.719 286.000,223.324 285.741,223.446 285.424 C 223.567 285.108,224.191 284.734,224.831 284.593 C 225.471 284.453,226.131 284.126,226.298 283.868 C 226.464 283.609,227.410 282.864,228.400 282.211 C 231.301 280.298,235.200 276.047,235.200 274.796 C 235.200 274.594,235.560 274.235,236.000 274.000 C 236.440 273.765,236.800 273.246,236.800 272.847 C 236.800 272.449,237.160 271.707,237.600 271.200 C 238.040 270.693,238.400 269.874,238.400 269.382 C 238.400 268.889,238.670 268.382,239.000 268.255 C 239.365 268.115,239.600 267.510,239.600 266.707 C 239.600 265.981,239.960 264.716,240.400 263.896 C 241.026 262.727,241.200 261.639,241.200 258.881 C 241.200 256.784,241.384 255.176,241.655 254.905 C 242.283 254.277,260.880 254.671,266.312 255.428 C 268.625 255.749,273.614 256.003,277.712 256.007 C 281.720 256.011,286.620 256.200,288.600 256.427 C 290.580 256.654,294.090 257.062,296.400 257.333 L 300.600 257.827 300.573 259.213 C 300.558 259.976,300.333 262.008,300.073 263.729 C 299.813 265.450,299.600 268.024,299.600 269.449 C 299.600 270.937,299.352 272.520,299.016 273.168 C 298.695 273.789,298.311 275.488,298.162 276.945 C 298.012 278.401,297.645 279.797,297.345 280.046 C 297.045 280.294,296.800 281.227,296.800 282.117 C 296.800 283.034,296.525 284.041,296.166 284.437 C 295.817 284.823,295.435 285.865,295.316 286.753 C 295.197 287.641,294.762 288.673,294.350 289.046 C 293.937 289.419,293.600 290.126,293.600 290.617 C 293.600 291.605,289.195 300.462,288.218 301.439 C 287.878 301.779,287.600 302.395,287.600 302.809 C 287.600 303.222,287.375 303.704,287.100 303.880 C 286.509 304.258,284.802 306.629,284.794 307.084 C 284.791 307.258,284.054 308.210,283.156 309.200 C 282.259 310.190,280.380 312.350,278.981 314.000 C 277.582 315.650,275.034 318.168,273.319 319.596 C 271.603 321.024,269.665 322.715,269.012 323.353 C 268.359 323.992,267.279 324.743,266.612 325.022 C 265.945 325.301,264.860 326.080,264.200 326.754 C 263.540 327.427,262.601 327.983,262.114 327.989 C 261.627 327.995,261.035 328.360,260.800 328.800 C 260.565 329.240,260.054 329.600,259.666 329.600 C 259.278 329.600,258.789 329.771,258.580 329.979 C 257.976 330.582,254.411 332.400,253.833 332.400 C 253.544 332.400,252.850 332.760,252.291 333.200 C 251.731 333.640,250.835 334.000,250.299 334.000 C 249.763 334.000,248.998 334.360,248.600 334.800 C 248.202 335.240,247.398 335.600,246.814 335.600 C 246.231 335.600,245.404 335.864,244.976 336.187 C 244.549 336.510,243.660 336.781,243.000 336.790 C 242.340 336.798,241.260 337.163,240.600 337.600 C 239.881 338.076,238.723 338.396,237.710 338.397 C 236.729 338.399,235.470 338.735,234.710 339.199 C 233.837 339.731,232.693 339.998,231.280 339.999 C 230.114 339.999,228.674 340.245,228.080 340.545 C 227.486 340.845,225.110 341.200,222.800 341.335 C 220.490 341.469,217.716 341.854,216.636 342.190 C 213.741 343.090,191.695 343.082,189.150 342.180 C 188.188 341.838,185.600 341.454,183.400 341.324 C 181.200 341.195,178.914 340.844,178.320 340.545 C 177.726 340.245,176.286 339.999,175.120 339.999 C 173.707 339.998,172.563 339.731,171.690 339.199 C 170.930 338.735,169.671 338.399,168.690 338.397 C 167.677 338.396,166.519 338.076,165.800 337.600 C 165.140 337.163,163.947 336.804,163.149 336.803 C 162.350 336.801,161.474 336.530,161.200 336.200 C 160.926 335.870,160.092 335.600,159.347 335.600 C 158.487 335.600,157.742 335.308,157.307 334.800 C 156.930 334.360,156.146 334.000,155.565 334.000 C 154.984 334.000,154.050 333.640,153.491 333.200 C 152.931 332.760,152.047 332.400,151.526 332.400 C 151.004 332.400,150.270 332.040,149.893 331.600 C 149.516 331.160,148.750 330.800,148.191 330.800 C 147.632 330.800,147.071 330.530,146.945 330.200 C 146.818 329.870,146.282 329.600,145.753 329.600 C 145.225 329.600,144.484 329.240,144.107 328.800 C 143.730 328.360,143.115 328.000,142.740 328.000 C 142.364 328.000,141.814 327.775,141.518 327.500 C 140.493 326.550,138.431 325.200,138.004 325.200 C 137.769 325.200,136.666 324.480,135.552 323.600 C 134.439 322.720,133.319 321.995,133.064 321.989 C 132.809 321.983,132.060 321.418,131.400 320.735 C 130.740 320.051,129.256 318.881,128.103 318.135 C 124.790 315.993,112.800 303.662,112.800 302.398 C 112.800 302.048,112.080 301.059,111.200 300.200 C 110.320 299.341,109.600 298.290,109.600 297.866 C 109.600 297.442,108.970 296.500,108.200 295.774 C 107.430 295.048,106.800 294.094,106.800 293.655 C 106.800 293.216,106.498 292.555,106.128 292.185 C 105.468 291.525,104.461 289.874,103.638 288.100 C 103.408 287.605,103.057 287.200,102.857 287.200 C 102.658 287.200,102.294 286.401,102.048 285.424 C 101.802 284.447,101.420 283.536,101.200 283.400 C 100.980 283.264,100.800 282.622,100.800 281.972 C 100.800 281.287,100.464 280.505,100.000 280.107 C 99.560 279.730,99.200 279.040,99.200 278.573 C 99.200 278.106,98.840 277.398,98.400 277.000 C 97.842 276.495,97.600 275.768,97.600 274.600 C 97.600 273.432,97.358 272.705,96.800 272.200 C 96.273 271.723,96.000 270.968,96.000 269.987 C 96.000 269.151,95.737 268.279,95.400 268.000 C 94.991 267.661,94.800 266.753,94.800 265.151 C 94.800 263.333,94.619 262.619,94.000 262.000 C 93.342 261.342,93.200 260.667,93.200 258.196 C 93.200 255.687,93.068 255.079,92.400 254.507 C 91.694 253.903,91.600 253.327,91.600 249.600 C 91.600 246.222,91.460 245.180,90.900 244.389 C 89.827 242.873,89.827 211.296,90.900 210.110 C 91.478 209.472,91.600 208.565,91.600 204.922 C 91.600 201.114,91.710 200.368,92.400 199.491 C 93.008 198.718,93.201 197.865,93.203 195.937 C 93.205 194.078,93.418 193.079,94.000 192.200 C 94.443 191.531,94.796 190.323,94.797 189.471 C 94.799 188.631,95.070 187.673,95.400 187.343 C 95.741 187.002,96.001 186.021,96.003 185.071 C 96.004 184.077,96.327 182.914,96.800 182.200 C 97.237 181.540,97.596 180.533,97.597 179.962 C 97.599 179.391,97.960 178.598,98.400 178.200 C 98.925 177.725,99.200 176.968,99.200 176.000 C 99.200 175.032,99.475 174.275,100.000 173.800 C 100.440 173.402,100.800 172.676,100.800 172.187 C 100.800 171.698,101.070 171.074,101.400 170.800 C 101.730 170.526,102.000 169.876,102.000 169.354 C 102.000 168.833,102.360 168.182,102.800 167.907 C 103.282 167.606,103.600 166.974,103.600 166.318 C 103.600 165.638,103.901 165.067,104.400 164.800 C 104.846 164.562,105.200 163.962,105.200 163.448 C 105.200 162.940,105.560 162.198,106.000 161.800 C 106.440 161.402,106.800 160.807,106.800 160.479 C 106.800 160.151,107.430 159.114,108.200 158.174 C 108.970 157.234,109.600 156.217,109.600 155.914 C 109.600 155.611,110.595 154.302,111.811 153.006 C 113.028 151.709,114.125 150.242,114.250 149.744 C 114.566 148.484,126.876 136.232,129.533 134.532 C 130.731 133.766,132.293 132.522,133.003 131.769 C 133.713 131.016,134.642 130.400,135.066 130.400 C 135.491 130.400,136.460 129.776,137.219 129.013 C 137.979 128.250,138.973 127.620,139.428 127.613 C 139.883 127.606,140.628 127.195,141.083 126.700 C 142.380 125.288,143.697 124.400,144.494 124.400 C 144.896 124.400,145.329 124.130,145.455 123.800 C 145.582 123.470,146.118 123.200,146.647 123.200 C 147.175 123.200,147.916 122.840,148.293 122.400 C 148.670 121.960,149.390 121.600,149.893 121.600 C 150.396 121.600,151.116 121.240,151.493 120.800 C 151.870 120.360,152.529 120.000,152.957 120.000 C 153.386 120.000,154.052 119.715,154.437 119.366 C 154.823 119.017,155.917 118.628,156.869 118.502 C 157.821 118.375,158.780 118.052,159.000 117.785 C 159.220 117.518,160.018 117.184,160.774 117.045 C 161.529 116.905,162.429 116.547,162.774 116.249 C 163.118 115.951,164.266 115.595,165.324 115.458 C 166.383 115.321,167.520 114.937,167.853 114.604 C 168.195 114.262,169.167 114.000,170.097 114.000 C 171.092 114.000,172.039 113.727,172.504 113.306 C 173.044 112.817,174.143 112.568,176.222 112.463 C 178.099 112.368,179.342 112.111,179.636 111.757 C 179.973 111.351,181.154 111.200,184.005 111.200 C 187.303 111.200,188.059 111.077,188.856 110.413 C 190.335 109.181,214.653 109.169,215.707 110.400 M211.275 165.868 C 211.704 166.256,212.951 166.613,214.260 166.722 C 215.727 166.843,216.767 167.167,217.254 167.654 C 217.664 168.064,218.431 168.400,218.957 168.400 C 219.484 168.400,220.018 168.670,220.145 169.000 C 220.271 169.330,220.824 169.600,221.373 169.600 C 221.962 169.600,222.547 169.928,222.800 170.400 C 223.047 170.861,223.638 171.200,224.195 171.200 C 225.275 171.200,233.200 178.785,233.200 179.820 C 233.200 180.139,233.560 180.760,234.000 181.200 C 234.440 181.640,234.800 182.171,234.800 182.380 C 234.800 182.589,235.093 182.924,235.452 183.125 C 236.509 183.717,237.263 182.928,199.100 221.118 L 162.400 257.844 162.400 255.583 C 162.400 253.897,162.197 253.088,161.600 252.400 C 161.001 251.709,160.800 250.903,160.800 249.193 C 160.800 247.514,160.588 246.638,160.000 245.891 C 159.336 245.047,159.200 244.268,159.200 241.313 C 159.200 238.802,159.027 237.524,158.613 236.976 C 157.746 235.831,157.746 216.969,158.613 215.824 C 159.032 215.269,159.200 213.974,159.200 211.287 C 159.200 208.132,159.329 207.362,160.000 206.509 C 160.578 205.774,160.800 204.886,160.800 203.309 C 160.800 201.732,161.022 200.844,161.600 200.109 C 162.124 199.442,162.400 198.486,162.400 197.334 C 162.400 196.136,162.592 195.501,163.002 195.344 C 163.333 195.217,163.715 194.423,163.849 193.581 C 163.984 192.739,164.343 191.954,164.647 191.837 C 164.951 191.721,165.200 191.101,165.200 190.462 C 165.200 189.822,165.463 189.080,165.785 188.813 C 166.106 188.546,166.491 187.939,166.640 187.464 C 166.788 186.989,167.245 186.171,167.655 185.646 C 168.065 185.121,168.400 184.400,168.400 184.042 C 168.400 183.685,168.760 183.168,169.200 182.893 C 169.640 182.618,170.000 182.147,170.000 181.846 C 170.000 181.544,170.270 181.074,170.600 180.800 C 170.930 180.526,171.200 179.976,171.200 179.578 C 171.200 179.180,171.560 178.740,172.000 178.600 C 172.440 178.460,172.800 178.088,172.800 177.773 C 172.800 177.458,173.058 177.200,173.373 177.200 C 173.688 177.200,174.060 176.840,174.200 176.400 C 174.340 175.960,174.614 175.600,174.809 175.600 C 175.285 175.600,177.200 173.663,177.200 173.182 C 177.200 172.972,177.442 172.800,177.738 172.800 C 178.034 172.800,178.602 172.440,179.000 172.000 C 179.398 171.560,180.050 171.200,180.448 171.200 C 180.846 171.200,181.365 170.840,181.600 170.400 C 181.841 169.950,182.438 169.600,182.965 169.600 C 183.480 169.600,184.126 169.330,184.400 169.000 C 184.674 168.670,185.328 168.400,185.853 168.400 C 186.378 168.400,187.116 168.040,187.493 167.600 C 187.966 167.047,188.675 166.799,189.789 166.797 C 190.723 166.796,191.904 166.461,192.600 166.000 C 194.288 164.882,210.062 164.770,211.275 165.868 " stroke="none" fill="#444444" fill-rule="evenodd"></path><path id="path2" d="M189.600 1.600 C 189.600 2.303,189.333 2.400,187.400 2.400 C 185.503 2.400,185.200 2.505,185.200 3.162 C 185.200 3.851,184.970 3.903,182.800 3.707 C 180.547 3.502,180.400 3.541,180.400 4.344 C 180.400 5.056,180.164 5.200,179.000 5.200 C 177.867 5.200,177.600 5.352,177.600 6.000 C 177.600 6.533,177.333 6.800,176.800 6.800 C 176.267 6.800,176.000 7.067,176.000 7.600 C 176.000 8.248,175.733 8.400,174.600 8.400 C 173.622 8.400,173.200 8.581,173.200 9.000 C 173.200 9.433,172.756 9.600,171.600 9.600 C 170.267 9.600,170.000 9.733,170.000 10.400 C 170.000 10.939,169.733 11.200,169.182 11.200 C 168.626 11.200,168.402 11.423,168.482 11.900 C 168.574 12.446,168.271 12.627,167.100 12.724 C 165.925 12.821,165.600 13.016,165.600 13.624 C 165.600 14.263,165.317 14.400,164.000 14.400 C 162.844 14.400,162.400 14.567,162.400 15.000 C 162.400 15.419,161.978 15.600,161.000 15.600 C 159.867 15.600,159.600 15.752,159.600 16.400 C 159.600 16.933,159.333 17.200,158.800 17.200 C 158.267 17.200,158.000 17.467,158.000 18.000 C 158.000 18.648,157.733 18.800,156.600 18.800 C 155.467 18.800,155.200 18.952,155.200 19.600 C 155.200 20.267,154.933 20.400,153.600 20.400 C 152.444 20.400,152.000 20.567,152.000 21.000 C 152.000 21.419,151.578 21.600,150.600 21.600 C 149.467 21.600,149.200 21.752,149.200 22.400 C 149.200 22.933,148.933 23.200,148.400 23.200 C 147.867 23.200,147.600 23.467,147.600 24.000 C 147.600 24.667,147.333 24.800,146.000 24.800 C 144.667 24.800,144.400 24.933,144.400 25.600 C 144.400 26.248,144.133 26.400,143.000 26.400 C 142.022 26.400,141.600 26.581,141.600 27.000 C 141.600 27.333,141.244 27.600,140.800 27.600 C 140.267 27.600,140.000 27.867,140.000 28.400 C 140.000 29.048,139.733 29.200,138.600 29.200 C 137.467 29.200,137.200 29.352,137.200 30.000 C 137.200 30.667,136.933 30.800,135.600 30.800 C 134.444 30.800,134.000 30.967,134.000 31.400 C 134.000 31.730,133.655 32.000,133.233 32.000 C 132.041 32.000,131.200 32.431,131.200 33.043 C 131.200 33.349,130.840 33.600,130.400 33.600 C 129.867 33.600,129.600 33.867,129.600 34.400 C 129.600 35.045,129.333 35.200,128.227 35.200 C 127.205 35.200,126.789 35.405,126.600 36.000 C 126.411 36.595,125.995 36.800,124.973 36.800 C 124.019 36.800,123.600 36.983,123.600 37.400 C 123.600 37.819,123.178 38.000,122.200 38.000 C 121.067 38.000,120.800 38.152,120.800 38.800 C 120.800 39.333,120.533 39.600,120.000 39.600 C 119.467 39.600,119.200 39.867,119.200 40.400 C 119.200 41.067,118.933 41.200,117.600 41.200 C 116.267 41.200,116.000 41.333,116.000 42.000 C 116.000 42.648,115.733 42.800,114.600 42.800 C 113.622 42.800,113.200 42.981,113.200 43.400 C 113.200 43.822,112.774 44.000,111.763 44.000 C 110.662 44.000,110.276 44.187,110.116 44.800 C 110.001 45.240,109.658 45.600,109.353 45.600 C 109.049 45.600,108.800 45.960,108.800 46.400 C 108.800 47.067,108.533 47.200,107.200 47.200 C 105.867 47.200,105.600 47.333,105.600 48.000 C 105.600 48.648,105.333 48.800,104.200 48.800 C 103.222 48.800,102.800 48.981,102.800 49.400 C 102.800 49.833,102.356 50.000,101.200 50.000 C 99.867 50.000,99.600 50.133,99.600 50.800 C 99.600 51.333,99.333 51.600,98.800 51.600 C 98.267 51.600,98.000 51.867,98.000 52.400 C 98.000 53.048,97.733 53.200,96.600 53.200 C 95.467 53.200,95.200 53.352,95.200 54.000 C 95.200 54.667,94.933 54.800,93.600 54.800 C 92.444 54.800,92.000 54.967,92.000 55.400 C 92.000 55.819,91.578 56.000,90.600 56.000 C 89.467 56.000,89.200 56.152,89.200 56.800 C 89.200 57.333,88.933 57.600,88.400 57.600 C 87.867 57.600,87.600 57.867,87.600 58.400 C 87.600 59.048,87.333 59.200,86.200 59.200 C 85.067 59.200,84.800 59.352,84.800 60.000 C 84.800 60.667,84.533 60.800,83.200 60.800 C 82.104 60.800,81.600 60.974,81.600 61.353 C 81.600 61.658,81.239 62.001,80.798 62.116 C 80.264 62.256,80.078 62.538,80.241 62.963 C 80.440 63.482,80.181 63.600,78.843 63.600 C 77.467 63.600,77.200 63.730,77.200 64.400 C 77.200 65.067,76.933 65.200,75.600 65.200 C 74.267 65.200,74.000 65.333,74.000 66.000 C 74.000 66.648,73.733 66.800,72.600 66.800 C 71.622 66.800,71.200 66.981,71.200 67.400 C 71.200 67.733,70.844 68.000,70.400 68.000 C 69.867 68.000,69.600 68.267,69.600 68.800 C 69.600 69.448,69.333 69.600,68.200 69.600 C 67.067 69.600,66.800 69.752,66.800 70.400 C 66.800 71.067,66.533 71.200,65.200 71.200 C 63.867 71.200,63.600 71.333,63.600 72.000 C 63.600 72.648,63.333 72.800,62.200 72.800 C 61.222 72.800,60.800 72.981,60.800 73.400 C 60.800 73.733,60.444 74.000,60.000 74.000 C 59.467 74.000,59.200 74.267,59.200 74.800 C 59.200 75.452,58.933 75.600,57.763 75.600 C 56.662 75.600,56.276 75.787,56.116 76.400 C 55.959 77.001,55.570 77.200,54.553 77.200 C 53.467 77.200,53.200 77.358,53.200 78.000 C 53.200 78.667,52.933 78.800,51.600 78.800 C 50.444 78.800,50.000 78.967,50.000 79.400 C 50.000 79.730,49.730 80.000,49.400 80.000 C 49.067 80.000,48.800 80.356,48.800 80.800 C 48.800 81.467,48.533 81.600,47.200 81.600 C 45.867 81.600,45.600 81.733,45.600 82.400 C 45.600 83.048,45.333 83.200,44.200 83.200 C 43.067 83.200,42.800 83.352,42.800 84.000 C 42.800 84.667,42.533 84.800,41.200 84.800 C 40.044 84.800,39.600 84.967,39.600 85.400 C 39.600 85.730,39.330 86.000,39.000 86.000 C 38.667 86.000,38.400 86.356,38.400 86.800 C 38.400 87.467,38.133 87.600,36.800 87.600 C 35.467 87.600,35.200 87.733,35.200 88.400 C 35.200 89.048,34.933 89.200,33.800 89.200 C 32.822 89.200,32.400 89.381,32.400 89.800 C 32.400 90.222,31.974 90.400,30.963 90.400 C 29.862 90.400,29.476 90.587,29.316 91.200 C 29.200 91.643,28.770 92.000,28.353 92.000 C 27.867 92.000,27.600 92.283,27.600 92.800 C 27.600 93.448,27.333 93.600,26.200 93.600 C 25.067 93.600,24.800 93.752,24.800 94.400 C 24.800 95.067,24.533 95.200,23.200 95.200 C 22.044 95.200,21.600 95.367,21.600 95.800 C 21.600 96.130,21.330 96.400,21.000 96.400 C 20.667 96.400,20.400 96.756,20.400 97.200 C 20.400 97.867,20.133 98.000,18.800 98.000 C 17.467 98.000,17.200 98.133,17.200 98.800 C 17.200 99.448,16.933 99.600,15.800 99.600 C 14.667 99.600,14.400 99.752,14.400 100.400 C 14.400 100.933,14.133 101.200,13.600 101.200 C 13.156 101.200,12.800 101.467,12.800 101.800 C 12.800 102.133,12.444 102.400,12.000 102.400 C 11.467 102.400,11.200 102.667,11.200 103.200 C 11.200 103.733,10.933 104.000,10.400 104.000 C 9.867 104.000,9.600 104.267,9.600 104.800 C 9.600 105.244,9.333 105.600,9.000 105.600 C 8.667 105.600,8.400 105.956,8.400 106.400 C 8.400 106.933,8.133 107.200,7.600 107.200 C 7.156 107.200,6.800 107.467,6.800 107.800 C 6.800 108.133,6.444 108.400,6.000 108.400 C 5.467 108.400,5.200 108.667,5.200 109.200 C 5.200 109.733,4.933 110.000,4.400 110.000 C 3.733 110.000,3.600 110.267,3.600 111.600 C 3.600 112.756,3.433 113.200,3.000 113.200 C 2.581 113.200,2.400 113.622,2.400 114.600 C 2.400 115.733,2.248 116.000,1.600 116.000 C 0.897 116.000,0.800 116.267,0.800 118.200 C 0.800 119.410,0.620 120.400,0.400 120.400 C 0.134 120.400,0.000 155.867,0.000 226.000 C 0.000 296.133,0.134 331.600,0.400 331.600 C 0.620 331.600,0.800 332.590,0.800 333.800 C 0.800 335.733,0.897 336.000,1.600 336.000 C 2.267 336.000,2.400 336.267,2.400 337.600 C 2.400 338.756,2.567 339.200,3.000 339.200 C 3.419 339.200,3.600 339.622,3.600 340.600 C 3.600 341.733,3.752 342.000,4.400 342.000 C 4.933 342.000,5.200 342.267,5.200 342.800 C 5.200 343.333,5.467 343.600,6.000 343.600 C 6.533 343.600,6.800 343.867,6.800 344.400 C 6.800 344.933,7.067 345.200,7.600 345.200 C 8.133 345.200,8.400 345.467,8.400 346.000 C 8.400 346.444,8.667 346.800,9.000 346.800 C 9.330 346.800,9.600 347.070,9.600 347.400 C 9.600 347.733,9.956 348.000,10.400 348.000 C 10.933 348.000,11.200 348.267,11.200 348.800 C 11.200 349.333,11.467 349.600,12.000 349.600 C 12.533 349.600,12.800 349.867,12.800 350.400 C 12.800 350.933,13.067 351.200,13.600 351.200 C 14.133 351.200,14.400 351.467,14.400 352.000 C 14.400 352.648,14.667 352.800,15.800 352.800 C 16.778 352.800,17.200 352.981,17.200 353.400 C 17.200 353.833,17.644 354.000,18.800 354.000 C 20.133 354.000,20.400 354.133,20.400 354.800 C 20.400 355.244,20.667 355.600,21.000 355.600 C 21.333 355.600,21.600 355.956,21.600 356.400 C 21.600 357.067,21.867 357.200,23.200 357.200 C 24.533 357.200,24.800 357.333,24.800 358.000 C 24.800 358.648,25.067 358.800,26.200 358.800 C 27.208 358.800,27.600 358.977,27.600 359.431 C 27.600 359.924,27.970 360.036,29.300 359.945 C 30.831 359.841,30.997 359.917,30.968 360.715 C 30.947 361.317,31.170 361.600,31.668 361.600 C 32.133 361.600,32.400 361.892,32.400 362.400 C 32.400 363.048,32.667 363.200,33.800 363.200 C 34.957 363.200,35.200 363.346,35.200 364.042 C 35.200 364.783,35.392 364.866,36.800 364.731 C 38.123 364.605,38.400 364.702,38.400 365.289 C 38.400 365.680,38.670 366.000,39.000 366.000 C 39.333 366.000,39.600 366.356,39.600 366.800 C 39.600 367.467,39.867 367.600,41.200 367.600 C 42.533 367.600,42.800 367.733,42.800 368.400 C 42.800 369.048,43.067 369.200,44.200 369.200 C 45.178 369.200,45.600 369.381,45.600 369.800 C 45.600 370.233,46.044 370.400,47.200 370.400 C 48.533 370.400,48.800 370.533,48.800 371.200 C 48.800 371.640,49.049 372.000,49.353 372.000 C 49.658 372.000,50.001 372.360,50.116 372.800 C 50.522 374.354,54.493 373.931,56.223 372.149 C 57.568 370.764,57.601 370.664,56.945 369.940 C 56.477 369.422,56.129 369.311,55.849 369.591 C 55.289 370.151,54.102 370.107,53.906 369.517 C 53.666 368.797,114.338 308.290,115.033 308.557 C 115.719 308.821,115.770 309.670,115.137 310.303 C 114.786 310.654,114.798 310.916,115.186 311.383 C 115.961 312.317,116.713 312.128,117.386 310.828 L 117.992 309.656 114.996 306.660 C 112.857 304.522,112.000 303.377,112.000 302.659 C 112.000 302.005,111.720 301.565,111.200 301.400 C 110.760 301.260,110.400 300.888,110.400 300.573 C 110.400 300.258,110.149 300.000,109.843 300.000 C 109.250 300.000,108.800 299.166,108.800 298.065 C 108.800 297.696,108.170 296.816,107.400 296.110 C 106.521 295.303,106.000 294.455,106.000 293.832 C 106.000 293.286,105.717 292.681,105.371 292.488 C 104.764 292.148,104.204 291.329,103.124 289.200 C 102.845 288.650,102.388 288.056,102.108 287.880 C 101.829 287.704,101.600 287.036,101.600 286.394 C 101.600 285.638,101.319 285.078,100.800 284.800 C 100.185 284.471,100.000 283.962,100.000 282.600 C 100.000 281.238,99.815 280.729,99.200 280.400 C 98.732 280.150,98.400 279.562,98.400 278.986 C 98.400 278.444,98.040 277.640,97.600 277.200 C 97.065 276.665,96.800 275.867,96.800 274.787 C 96.800 273.723,96.596 273.097,96.200 272.945 C 95.781 272.784,95.600 272.130,95.600 270.771 C 95.600 269.238,95.431 268.738,94.800 268.400 C 94.127 268.040,94.000 267.562,94.000 265.400 C 94.000 263.238,93.873 262.760,93.200 262.400 C 92.503 262.027,92.400 261.562,92.400 258.786 C 92.400 256.133,92.266 255.466,91.600 254.800 C 90.903 254.103,90.800 253.467,90.800 249.849 C 90.800 246.647,90.663 245.584,90.200 245.200 C 89.295 244.449,89.295 209.692,90.200 209.345 C 90.681 209.160,90.801 208.269,90.805 204.857 C 90.812 200.100,91.035 198.800,91.847 198.800 C 92.272 198.800,92.400 198.058,92.400 195.600 C 92.400 192.933,92.533 192.267,93.200 191.600 C 93.761 191.039,94.000 190.267,94.000 189.014 C 94.000 187.638,94.183 187.130,94.800 186.800 C 95.474 186.439,95.600 185.962,95.600 183.773 C 95.600 181.833,95.752 181.117,96.200 180.945 C 96.530 180.818,96.800 180.282,96.800 179.753 C 96.800 179.225,97.160 178.484,97.600 178.107 C 98.190 177.602,98.400 176.927,98.400 175.538 C 98.400 174.005,98.549 173.607,99.200 173.400 C 99.758 173.223,100.000 172.795,100.000 171.987 C 100.000 171.238,100.283 170.677,100.800 170.400 C 101.327 170.118,101.600 169.562,101.600 168.773 C 101.600 168.077,101.851 167.478,102.200 167.345 C 102.548 167.211,102.800 166.613,102.800 165.920 C 102.800 165.062,103.025 164.666,103.600 164.516 C 104.166 164.368,104.400 163.970,104.400 163.157 C 104.400 162.440,104.701 161.819,105.200 161.507 C 105.656 161.223,106.000 160.574,106.000 160.001 C 106.000 159.362,106.511 158.525,107.400 157.710 C 108.170 157.003,108.800 156.044,108.800 155.578 C 108.800 155.078,109.702 153.850,111.000 152.583 C 112.210 151.401,113.200 150.172,113.200 149.850 C 113.200 148.829,113.667 148.000,114.243 148.000 C 114.549 148.000,114.800 147.824,114.800 147.609 C 114.800 147.190,126.984 134.941,128.245 134.092 C 128.660 133.813,129.540 133.320,130.200 132.997 C 130.860 132.675,131.842 131.868,132.381 131.205 C 133.004 130.441,133.735 129.999,134.381 129.996 C 135.065 129.993,135.861 129.468,136.800 128.400 C 137.791 127.273,138.522 126.807,139.300 126.804 C 139.986 126.801,140.400 126.584,140.400 126.227 C 140.400 125.912,140.743 125.545,141.163 125.412 C 141.583 125.279,142.027 124.906,142.150 124.585 C 142.278 124.254,142.889 124.000,143.560 124.000 C 144.395 124.000,144.821 123.763,145.000 123.200 C 145.177 122.642,145.605 122.400,146.413 122.400 C 147.162 122.400,147.723 122.117,148.000 121.600 C 148.250 121.132,148.838 120.800,149.414 120.800 C 149.956 120.800,150.760 120.440,151.200 120.000 C 151.640 119.560,152.431 119.200,152.957 119.200 C 153.484 119.200,154.018 118.930,154.145 118.600 C 154.302 118.190,154.944 118.000,156.173 118.000 C 157.562 118.000,158.069 117.818,158.400 117.200 C 158.678 116.681,159.238 116.400,159.994 116.400 C 160.649 116.400,161.318 116.118,161.520 115.758 C 161.742 115.360,162.625 115.036,163.840 114.907 C 164.918 114.792,166.118 114.421,166.506 114.082 C 166.895 113.742,168.245 113.382,169.506 113.280 C 170.856 113.172,171.932 112.870,172.120 112.548 C 172.337 112.176,173.249 112.000,174.959 112.000 C 176.903 112.000,177.688 111.818,178.400 111.200 C 179.206 110.501,179.897 110.400,183.861 110.400 C 187.474 110.400,188.400 110.286,188.400 109.843 C 188.400 108.409,215.236 108.173,216.000 109.600 C 216.390 110.329,216.838 110.400,221.018 110.400 C 225.113 110.400,225.682 110.486,226.293 111.200 C 226.853 111.855,227.473 112.000,229.701 112.000 C 231.753 112.000,232.482 112.148,232.655 112.600 C 232.812 113.007,233.449 113.200,234.639 113.200 C 235.960 113.200,236.517 113.398,236.893 114.000 C 237.278 114.617,237.826 114.800,239.282 114.800 C 240.762 114.800,241.265 114.973,241.600 115.600 C 241.929 116.215,242.438 116.400,243.800 116.400 C 245.162 116.400,245.671 116.585,246.000 117.200 C 246.282 117.727,246.838 118.000,247.627 118.000 C 248.323 118.000,248.922 118.251,249.055 118.600 C 249.182 118.930,249.718 119.200,250.247 119.200 C 250.775 119.200,251.516 119.560,251.893 120.000 C 252.270 120.440,252.883 120.800,253.256 120.800 C 254.365 120.800,255.200 121.248,255.200 121.843 C 255.200 122.161,255.603 122.400,256.138 122.400 C 256.654 122.400,257.402 122.760,257.800 123.200 C 258.198 123.640,258.766 124.000,259.062 124.000 C 259.358 124.000,259.600 124.270,259.600 124.600 C 259.600 124.980,259.982 125.200,260.642 125.200 C 261.387 125.200,262.351 125.882,264.032 127.600 C 265.418 129.016,266.722 130.000,267.215 130.000 C 267.762 130.000,270.323 132.285,274.654 136.636 C 281.048 143.061,281.282 143.250,282.029 142.574 C 282.453 142.190,282.800 141.485,282.800 141.008 C 282.800 140.065,341.562 81.000,342.500 81.000 C 342.817 81.000,343.000 81.587,343.000 82.600 C 343.000 85.271,344.950 85.137,347.817 82.270 C 350.492 79.595,350.626 78.800,348.400 78.800 C 347.067 78.800,346.800 78.667,346.800 78.000 C 346.800 77.358,346.533 77.200,345.447 77.200 C 344.430 77.200,344.041 77.001,343.884 76.400 C 343.724 75.787,343.338 75.600,342.237 75.600 C 341.046 75.600,340.800 75.457,340.800 74.765 C 340.800 74.012,340.642 73.956,339.200 74.200 C 337.758 74.444,337.600 74.388,337.600 73.635 C 337.600 73.159,337.342 72.800,337.000 72.800 C 336.667 72.800,336.400 72.444,336.400 72.000 C 336.400 71.333,336.133 71.200,334.800 71.200 C 333.467 71.200,333.200 71.067,333.200 70.400 C 333.200 69.752,332.933 69.600,331.800 69.600 C 330.653 69.600,330.400 69.451,330.400 68.775 C 330.400 68.021,330.242 67.975,328.539 68.230 C 326.777 68.494,326.690 68.464,326.902 67.655 C 327.052 67.081,326.940 66.800,326.563 66.800 C 326.253 66.800,326.000 66.440,326.000 66.000 C 326.000 65.333,325.733 65.200,324.400 65.200 C 323.067 65.200,322.800 65.067,322.800 64.400 C 322.800 63.732,322.533 63.600,321.182 63.600 C 319.864 63.600,319.587 63.471,319.682 62.900 C 319.801 62.194,319.217 62.076,317.400 62.440 C 316.814 62.557,316.566 62.359,316.472 61.700 C 316.402 61.205,316.087 60.800,315.772 60.800 C 315.457 60.800,315.200 60.440,315.200 60.000 C 315.200 59.352,314.933 59.200,313.800 59.200 C 312.638 59.200,312.400 59.055,312.400 58.347 C 312.400 57.583,312.233 57.517,310.800 57.709 C 309.317 57.908,309.200 57.853,309.200 56.962 C 309.200 56.374,308.967 56.000,308.600 56.000 C 308.270 56.000,308.000 55.730,308.000 55.400 C 308.000 54.967,307.556 54.800,306.400 54.800 C 305.067 54.800,304.800 54.667,304.800 54.000 C 304.800 53.352,304.533 53.200,303.400 53.200 C 302.238 53.200,302.000 53.055,302.000 52.347 C 302.000 51.583,301.833 51.517,300.400 51.709 C 298.825 51.921,298.607 51.759,298.770 50.500 C 298.806 50.225,298.467 50.000,298.018 50.000 C 297.558 50.000,297.200 49.738,297.200 49.400 C 297.200 48.981,296.778 48.800,295.800 48.800 C 294.667 48.800,294.400 48.648,294.400 48.000 C 294.400 47.333,294.133 47.200,292.800 47.200 C 291.444 47.200,291.200 47.073,291.200 46.365 C 291.200 45.607,291.046 45.556,289.545 45.809 C 287.924 46.083,287.894 46.067,288.089 45.044 C 288.247 44.221,288.131 44.000,287.545 44.000 C 287.135 44.000,286.800 43.730,286.800 43.400 C 286.800 42.981,286.378 42.800,285.400 42.800 C 284.267 42.800,284.000 42.648,284.000 42.000 C 284.000 41.333,283.733 41.200,282.400 41.200 C 281.044 41.200,280.800 41.073,280.800 40.365 C 280.800 39.612,280.642 39.556,279.200 39.800 C 277.676 40.057,277.600 40.021,277.600 39.035 C 277.600 38.382,277.379 38.000,277.000 38.000 C 276.670 38.000,276.400 37.730,276.400 37.400 C 276.400 36.981,275.978 36.800,275.000 36.800 C 273.867 36.800,273.600 36.648,273.600 36.000 C 273.600 35.333,273.333 35.200,272.000 35.200 C 270.644 35.200,270.400 35.073,270.400 34.365 C 270.400 33.617,270.239 33.557,268.850 33.792 C 267.424 34.032,267.279 33.971,267.042 33.027 C 266.901 32.462,266.608 32.000,266.392 32.000 C 266.177 32.000,266.000 31.730,266.000 31.400 C 266.000 30.967,265.556 30.800,264.400 30.800 C 263.067 30.800,262.800 30.667,262.800 30.000 C 262.800 29.337,262.533 29.200,261.237 29.200 C 259.872 29.200,259.701 29.099,259.884 28.400 C 260.045 27.786,259.896 27.600,259.247 27.600 C 258.761 27.600,258.400 27.344,258.400 27.000 C 258.400 26.581,257.978 26.400,257.000 26.400 C 255.867 26.400,255.600 26.248,255.600 25.600 C 255.600 24.933,255.333 24.800,254.000 24.800 C 252.634 24.800,252.400 24.675,252.400 23.947 C 252.400 23.183,252.233 23.117,250.800 23.309 C 249.317 23.508,249.200 23.453,249.200 22.562 C 249.200 21.974,248.967 21.600,248.600 21.600 C 248.270 21.600,248.000 21.330,248.000 21.000 C 248.000 20.567,247.556 20.400,246.400 20.400 C 245.067 20.400,244.800 20.267,244.800 19.600 C 244.800 18.952,244.533 18.800,243.400 18.800 C 242.239 18.800,242.000 18.655,242.000 17.949 C 242.000 17.180,241.846 17.122,240.400 17.354 C 238.890 17.595,238.800 17.553,238.800 16.605 C 238.800 15.978,238.574 15.600,238.200 15.600 C 237.870 15.600,237.600 15.330,237.600 15.000 C 237.600 14.567,237.156 14.400,236.000 14.400 C 234.667 14.400,234.400 14.267,234.400 13.600 C 234.400 12.952,234.133 12.800,233.000 12.800 C 231.842 12.800,231.600 12.654,231.600 11.955 C 231.600 11.179,231.451 11.132,229.800 11.379 C 228.065 11.639,228.000 11.612,228.000 10.625 C 228.000 9.981,227.777 9.600,227.400 9.600 C 227.070 9.600,226.800 9.330,226.800 9.000 C 226.800 8.581,226.378 8.400,225.400 8.400 C 224.267 8.400,224.000 8.248,224.000 7.600 C 224.000 6.933,223.733 6.800,222.400 6.800 C 221.035 6.800,220.800 6.675,220.800 5.949 C 220.800 5.176,220.649 5.122,219.151 5.361 C 217.538 5.619,217.506 5.602,217.703 4.575 C 217.895 3.570,217.838 3.531,216.352 3.673 C 215.076 3.795,214.800 3.695,214.800 3.111 C 214.800 2.516,214.441 2.400,212.600 2.400 C 210.667 2.400,210.400 2.303,210.400 1.600 C 210.400 0.821,210.133 0.800,200.000 0.800 C 189.867 0.800,189.600 0.821,189.600 1.600 M368.305 90.683 C 368.802 90.779,369.522 90.775,369.905 90.675 C 370.287 90.575,369.880 90.496,369.000 90.501 C 368.120 90.505,367.807 90.587,368.305 90.683 M192.600 166.000 C 191.904 166.461,190.723 166.796,189.789 166.797 C 188.675 166.799,187.966 167.047,187.493 167.600 C 187.116 168.040,186.378 168.400,185.853 168.400 C 185.328 168.400,184.674 168.670,184.400 169.000 C 184.126 169.330,183.480 169.600,182.965 169.600 C 182.438 169.600,181.841 169.950,181.600 170.400 C 181.365 170.840,180.846 171.200,180.448 171.200 C 180.050 171.200,179.398 171.560,179.000 172.000 C 178.602 172.440,178.034 172.800,177.738 172.800 C 177.442 172.800,177.200 172.972,177.200 173.182 C 177.200 173.663,175.285 175.600,174.809 175.600 C 174.614 175.600,174.340 175.960,174.200 176.400 C 174.060 176.840,173.688 177.200,173.373 177.200 C 173.058 177.200,172.800 177.458,172.800 177.773 C 172.800 178.088,172.440 178.460,172.000 178.600 C 171.560 178.740,171.200 179.180,171.200 179.578 C 171.200 179.976,170.930 180.526,170.600 180.800 C 170.270 181.074,170.000 181.544,170.000 181.846 C 170.000 182.147,169.640 182.618,169.200 182.893 C 168.760 183.168,168.400 183.685,168.400 184.042 C 168.400 184.400,168.065 185.121,167.655 185.646 C 167.245 186.171,166.788 186.989,166.640 187.464 C 166.491 187.939,166.106 188.546,165.785 188.813 C 165.463 189.080,165.200 189.822,165.200 190.462 C 165.200 191.101,164.951 191.721,164.647 191.837 C 164.343 191.954,163.984 192.739,163.849 193.581 C 163.715 194.423,163.333 195.217,163.002 195.344 C 162.592 195.501,162.400 196.136,162.400 197.334 C 162.400 198.486,162.124 199.442,161.600 200.109 C 161.022 200.844,160.800 201.732,160.800 203.309 C 160.800 204.886,160.578 205.774,160.000 206.509 C 159.329 207.362,159.200 208.132,159.200 211.287 C 159.200 213.974,159.032 215.269,158.613 215.824 C 157.746 216.969,157.746 235.831,158.613 236.976 C 159.027 237.524,159.200 238.802,159.200 241.313 C 159.200 244.268,159.336 245.047,160.000 245.891 C 160.588 246.638,160.800 247.514,160.800 249.193 C 160.800 250.903,161.001 251.709,161.600 252.400 C 162.197 253.088,162.400 253.897,162.400 255.583 L 162.400 257.844 199.100 221.118 C 237.263 182.928,236.509 183.717,235.452 183.125 C 235.093 182.924,234.800 182.589,234.800 182.380 C 234.800 182.171,234.440 181.640,234.000 181.200 C 233.560 180.760,233.200 180.139,233.200 179.820 C 233.200 178.785,225.275 171.200,224.195 171.200 C 223.638 171.200,223.047 170.861,222.800 170.400 C 222.547 169.928,221.962 169.600,221.373 169.600 C 220.824 169.600,220.271 169.330,220.145 169.000 C 220.018 168.670,219.484 168.400,218.957 168.400 C 218.431 168.400,217.664 168.064,217.254 167.654 C 216.767 167.167,215.727 166.843,214.260 166.722 C 212.951 166.613,211.704 166.256,211.275 165.868 C 210.062 164.770,194.288 164.882,192.600 166.000 M53.206 374.500 C 53.202 375.010,53.499 375.187,54.300 375.154 C 55.143 375.118,55.213 375.061,54.600 374.907 C 54.160 374.797,53.668 374.503,53.506 374.254 C 53.320 373.966,53.210 374.056,53.206 374.500 " stroke="none" fill="#040404" fill-rule="evenodd"></path></g></svg>