<svg id="svg" version="1.1" xmlns="http://www.w3.org/2000/svg" xmlns:xlink="http://www.w3.org/1999/xlink" width="400" height="514.2857142857142" viewBox="0, 0, 400,514.2857142857142"><g id="svgg"><path id="path0" d="M249.462 2.116 C 250.400 3.635,251.193 12.732,251.223 22.333 C 251.326 54.690,238.037 74.064,187.578 115.123 C 116.528 172.936,114.189 194.485,172.377 255.119 C 202.922 286.948,208.745 287.682,188.440 257.143 C 148.161 196.560,151.113 179.134,210.146 129.016 C 247.016 97.714,265.839 66.851,265.839 37.700 C 265.839 22.632,257.939 2.505,251.207 0.423 C 249.155 -0.212,248.448 0.475,249.462 2.116 M288.199 111.465 C 199.172 146.049,179.320 186.888,222.386 246.855 C 234.127 263.204,233.497 278.693,220.529 292.537 C 210.889 302.827,218.183 301.258,233.006 289.852 C 263.213 266.608,266.976 247.356,247.197 217.242 C 220.520 176.627,232.541 153.948,301.729 114.363 C 326.911 99.955,321.056 98.701,288.199 111.465 M323.602 279.870 C 310.432 286.362,312.742 290.076,327.346 285.888 C 343.268 281.321,361.298 291.688,364.183 307.068 C 367.660 325.598,350.850 348.244,321.020 365.217 C 298.734 377.898,301.145 381.694,325.775 372.706 C 380.930 352.576,404.007 318.043,380.762 290.419 C 368.681 276.060,341.504 271.045,323.602 279.870 M122.981 280.688 C 92.366 284.276,52.174 299.751,52.174 307.951 C 52.174 334.141,241.986 334.723,296.241 308.700 C 311.895 301.191,314.964 296.634,302.717 299.084 C 232.208 313.186,91.925 315.601,91.925 302.713 C 91.925 299.764,106.133 293.588,125.331 288.191 C 137.011 284.907,148.860 277.139,139.959 278.601 C 138.820 278.788,131.180 279.727,122.981 280.688 M108.075 342.518 C 42.993 372.123,169.212 395.522,268.944 372.341 C 286.712 368.211,297.888 362.733,288.545 362.733 C 287.370 362.733,282.399 360.013,277.500 356.688 C 268.613 350.657,268.544 350.652,246.719 354.222 C 181.917 364.822,105.137 359.568,117.950 345.411 C 125.673 336.877,122.512 335.951,108.075 342.518 M124.298 396.593 C 76.381 416.750,140.491 446.158,214.355 437.904 C 239.236 435.124,280.745 424.070,280.745 420.225 C 280.745 412.324,251.284 404.462,233.279 407.558 C 188.022 415.339,122.548 409.757,131.570 398.887 C 136.329 393.152,134.128 392.458,124.298 396.593 M55.463 434.760 C -7.216 451.190,-4.783 471.777,60.870 480.505 C 204.572 499.610,380.180 478.337,366.791 443.447 C 364.060 436.330,354.945 433.825,356.661 440.663 C 361.124 458.447,289.987 470.421,180.124 470.377 C 63.279 470.331,6.992 452.743,79.557 438.953 C 95.316 435.958,97.930 433.821,88.820 431.380 C 80.354 429.111,74.914 429.662,55.463 434.760 M383.822 464.644 C 366.376 492.872,200.784 510.188,89.479 495.423 C 74.140 493.388,73.775 497.504,88.910 501.836 C 183.413 528.890,376.824 506.868,388.702 467.702 C 390.411 462.066,386.810 459.809,383.822 464.644 " stroke="none" fill="#000000" fill-rule="evenodd"></path></g></svg>