<svg id="svg" xmlns="http://www.w3.org/2000/svg" xmlns:xlink="http://www.w3.org/1999/xlink" width="400" height="281.6120906801008" viewBox="0, 0, 400,281.6120906801008"><g id="svgg"><path id="path0" d="M278.590 1.051 C 252.483 6.938,231.167 24.825,223.223 47.512 C 216.708 66.118,217.981 92.354,226.268 110.292 C 236.159 131.701,253.643 144.994,296.222 163.475 C 326.082 176.436,334.736 181.897,339.094 190.531 C 348.125 208.420,336.325 226.394,313.344 229.754 C 289.010 233.312,268.611 224.218,252.906 202.811 C 249.442 198.089,248.010 196.501,247.420 196.727 C 245.320 197.533,204.291 221.327,202.915 222.537 C 201.814 223.506,202.275 224.688,206.290 231.178 C 227.089 264.802,263.351 282.232,309.824 280.943 C 368.165 279.325,402.639 245.902,399.025 194.462 C 396.293 155.563,377.622 136.142,317.884 110.059 C 282.221 94.487,275.410 88.553,275.410 73.048 C 275.410 58.040,285.752 48.854,302.667 48.837 C 316.840 48.823,325.727 54.053,335.467 68.144 C 338.776 72.930,338.186 72.956,346.513 67.660 C 353.749 63.058,382.489 44.369,382.802 44.063 C 382.902 43.965,381.455 41.548,379.588 38.693 C 365.921 17.799,349.956 6.260,327.859 1.304 C 319.970 -0.465,286.085 -0.640,278.590 1.051 M114.233 103.652 L 113.982 205.793 112.652 210.230 C 108.467 224.198,100.693 229.739,85.206 229.792 C 69.973 229.846,62.100 224.495,51.140 206.639 C 49.554 204.056,47.945 201.823,47.564 201.677 C 47.026 201.471,19.993 217.385,3.904 227.379 C 0.968 229.204,0.958 228.912,4.164 234.894 C 20.364 265.119,48.619 280.805,86.902 280.828 C 133.745 280.855,161.458 259.560,169.580 217.297 L 170.919 210.327 171.160 105.919 L 171.400 1.511 142.942 1.511 L 114.484 1.511 114.233 103.652 " stroke="none" fill="#000000" fill-rule="evenodd"></path></g></svg>