<svg id="svg" version="1.1" xmlns="http://www.w3.org/2000/svg" xmlns:xlink="http://www.w3.org/1999/xlink" width="400" height="397.3333333333333" viewBox="0, 0, 400,397.3333333333333"><g id="svgg"><path id="path0" d="M161.085 1.437 C 140.786 4.415,123.706 11.208,113.919 20.195 C 103.407 29.848,102.730 32.470,102.696 63.667 L 102.667 90.667 151.333 90.667 L 200.000 90.667 200.000 96.702 L 200.000 102.736 126.333 102.659 C 85.817 102.617,50.861 103.118,48.654 103.772 C 17.765 112.939,1.898 141.342,0.362 190.220 C -1.356 244.880,10.558 277.479,37.596 292.097 L 46.000 296.640 69.000 297.119 L 92.000 297.597 92.000 269.079 C 92.000 230.450,95.223 218.939,109.681 205.941 C 122.772 194.171,122.681 194.184,194.000 193.317 C 260.303 192.511,259.211 192.613,272.058 185.970 C 279.908 181.911,288.811 172.340,292.827 163.646 L 296.667 155.333 297.069 100.218 C 297.577 30.619,296.220 26.077,271.033 13.013 C 248.528 1.341,198.004 -3.978,161.085 1.437 M153.377 34.023 C 167.723 41.441,161.464 64.014,145.066 63.995 C 139.454 63.989,132.311 59.659,130.633 55.246 C 124.726 39.707,138.862 26.516,153.377 34.023 M309.000 99.418 C 308.450 99.983,308.000 113.008,308.000 128.363 C 308.000 172.282,302.179 186.838,280.310 197.611 L 271.400 202.000 209.366 202.740 C 139.783 203.570,138.097 203.790,122.982 214.014 C 104.210 226.713,102.446 234.538,102.943 302.922 C 103.386 363.949,103.003 361.739,115.283 374.020 C 149.917 408.654,271.242 404.584,293.000 368.059 L 297.333 360.785 297.333 333.726 L 297.333 306.667 249.000 306.667 L 200.667 306.667 200.667 300.667 L 200.667 294.667 272.758 294.667 C 360.416 294.667,360.521 294.648,377.877 275.902 C 394.237 258.231,399.075 241.030,399.224 200.000 C 399.428 144.108,388.336 116.821,360.000 103.500 C 351.270 99.396,312.077 96.259,309.000 99.418 M266.333 338.038 C 278.476 350.899,263.654 371.428,248.052 363.360 C 235.214 356.721,235.504 339.674,248.554 333.851 C 254.692 331.111,261.253 332.656,266.333 338.038 " stroke="none" fill="#000000" fill-rule="evenodd"></path></g></svg>