<svg id="svg" xmlns="http://www.w3.org/2000/svg" xmlns:xlink="http://www.w3.org/1999/xlink" width="400" height="400" viewBox="0, 0, 400,400"><g id="svgg"><path id="path0" d="M264.188 101.566 C 231.683 106.147,211.912 136.143,218.633 170.677 C 222.411 190.085,243.093 209.748,270.135 219.641 C 286.948 225.792,301.672 234.802,304.881 240.904 C 316.986 263.923,278.152 279.720,254.297 261.481 C 249.361 257.707,246.680 254.872,240.625 247.024 L 238.672 244.492 221.696 254.340 L 204.719 264.187 206.361 267.445 C 228.969 312.310,308.339 321.813,337.975 283.203 C 346.172 272.525,348.752 264.396,348.761 249.219 C 348.780 217.378,335.819 202.378,291.016 182.391 C 268.911 172.530,264.089 169.458,260.902 163.211 C 254.262 150.197,262.811 137.932,278.516 137.940 C 289.502 137.945,292.523 139.730,303.202 152.524 L 305.232 154.957 320.390 144.868 C 328.726 139.319,335.864 134.546,336.252 134.262 C 338.300 132.760,326.114 117.614,318.465 112.155 C 305.384 102.821,284.372 98.722,264.188 101.566 M37.211 104.883 C 36.952 105.850,36.735 114.111,36.729 123.242 L 36.719 139.844 65.625 139.844 L 94.531 139.844 94.531 222.266 L 94.531 304.688 115.234 304.688 L 135.938 304.688 135.938 222.266 L 135.938 139.844 164.844 139.844 L 193.750 139.844 193.750 121.484 L 193.750 103.125 115.716 103.125 L 37.682 103.125 37.211 104.883 " stroke="none" fill="#000000" fill-rule="evenodd"></path></g></svg>